<svg xmlns="http://www.w3.org/2000/svg" viewBox="0 0 37.02 37.02">
  <defs>
    <style>.cls-1 {
      fill: none;
    }

    .cls-2 {
      fill: url(#Degradado_sin_nombre_2);
    }</style>
    <linearGradient id="Degradado_sin_nombre_2" x1="1.13" y1="18.51" x2="35.89" y2="18.51"
                    gradientUnits="userSpaceOnUse">
      <stop offset="0" stop-color="#1b4263"/>
      <stop offset="1" stop-color="#20a494"/>
    </linearGradient>
  </defs>
  <title>Recurso 3</title>
  <g id="Capa_2" data-name="Capa 2">
    <g id="Capa_1-2" data-name="Capa 1">
      <rect class="cls-1" width="20" height="20"/>
      <path class="cls-2"
            d="M18.51,37a5,5,0,0,1-5-5v-.49h10V32A5,5,0,0,1,18.51,37Zm-4-4.5a4,4,0,0,0,8,0Zm21.37-2.26H1.13l1.34-.89c3-2,4.29-12.35,4.29-15.36a11.79,11.79,0,0,1,9-11.43.45.45,0,0,0,0-.11A2.74,2.74,0,0,1,20.63,1a2.66,2.66,0,0,1,.61,1.56,11.8,11.8,0,0,1,9,11.44c0,3,1.29,13.36,4.29,15.36ZM4,29.29h29.1c-3-3.7-3.77-13.8-3.77-15.28A10.8,10.8,0,0,0,20.65,3.44l-.43-.09.05-.43A1.77,1.77,0,0,0,18.69,1a1.76,1.76,0,0,0-1.3.39,1.79,1.79,0,0,0-.64,1.19,2.16,2.16,0,0,0,0,.36l.05.43-.44.09A10.82,10.82,0,0,0,7.73,14C7.73,15.49,7,25.59,4,29.29Z"/>
    </g>
  </g>
</svg>
