<svg width="37" height="37" viewBox="0 0 37 37" fill="none" xmlns="http://www.w3.org/2000/svg">
<mask id="path-1-inside-1" fill="white">
<path fill-rule="evenodd" clip-rule="evenodd" d="M23.1832 2.08785C23.1832 1.4859 22.6973 0.99999 22.0953 0.99999H14.7704C14.1685 0.99999 13.6825 1.4859 13.6825 2.08785V9.41638C13.6825 10.0183 14.1685 10.5042 14.7704 10.5042H22.0953C22.6973 10.5042 23.1832 10.0183 23.1832 9.41638V2.08785ZM10.5006 2.08786C10.5006 1.48591 10.0147 1 9.41276 1H2.08786C1.48591 1 1 1.48591 1 2.08786V9.41639C1 10.0183 1.48591 10.5042 2.08786 10.5042H9.41639C10.0183 10.5042 10.5042 10.0183 10.5042 9.41639V2.08786H10.5006ZM34.775 0.99999C35.3769 0.99999 35.8629 1.4859 35.8629 2.08785H35.8665V9.41638C35.8665 10.0183 35.3806 10.5042 34.7786 10.5042H27.4501C26.8481 10.5042 26.3622 10.0183 26.3622 9.41638V2.08785C26.3622 1.4859 26.8481 0.99999 27.4501 0.99999H34.775ZM10.5006 14.8375C10.5006 14.2356 10.0147 13.7497 9.41276 13.7497H2.08786C1.48591 13.7497 1 14.2356 1 14.8375V22.1625C1 22.7644 1.48591 23.2503 2.08786 23.2503H9.41639C10.0183 23.2503 10.5042 22.7644 10.5042 22.1625V14.8375H10.5006ZM22.0953 13.7497C22.6973 13.7497 23.1832 14.2356 23.1832 14.8375V22.1624C23.1832 22.7644 22.6973 23.2503 22.0953 23.2503H14.7704C14.1685 23.2503 13.6825 22.7644 13.6825 22.1624V14.8375C13.6825 14.2356 14.1685 13.7497 14.7704 13.7497H22.0953ZM35.8629 14.8375C35.8629 14.2356 35.3769 13.7497 34.775 13.7497H27.4501C26.8481 13.7497 26.3622 14.2356 26.3622 14.8375V22.1624C26.3622 22.7644 26.8481 23.2503 27.4501 23.2503H34.7786C35.3806 23.2503 35.8665 22.7644 35.8665 22.1624V14.8375H35.8629ZM2.08786 26.4958H9.41276C10.0147 26.4958 10.5006 26.9853 10.5042 27.5836V34.9121C10.5042 35.5142 10.0183 36 9.41639 36H2.08786C1.48591 36 1 35.5142 1 34.9121V27.5836C1 26.9817 1.48591 26.4958 2.08786 26.4958ZM22.0953 26.4957H14.7704C14.1685 26.4957 13.6825 26.9816 13.6825 27.5836V34.9121C13.6825 35.5141 14.1685 36 14.7704 36H22.0953C22.6973 36 23.1832 35.5141 23.1832 34.9121V27.5836C23.1832 26.9853 22.6972 26.4957 22.0953 26.4957ZM27.4501 26.4957H34.775C35.3769 26.4957 35.8629 26.9853 35.8665 27.5836V34.9121C35.8665 35.5141 35.3806 36 34.7786 36H27.4501C26.8481 36 26.3622 35.5141 26.3622 34.9121V27.5836C26.3622 26.9816 26.8481 26.4957 27.4501 26.4957Z"/>
</mask>
<path d="M10.5006 2.08786H9.50062V3.08786H10.5006V2.08786ZM10.5042 2.08786H11.5042V1.08786H10.5042V2.08786ZM35.8629 2.08785H34.8629V3.08785H35.8629V2.08785ZM35.8665 2.08785H36.8665V1.08785H35.8665V2.08785ZM10.5006 14.8375H9.50062V15.8375H10.5006V14.8375ZM10.5042 14.8375H11.5042V13.8375H10.5042V14.8375ZM35.8629 14.8375H34.8629V15.8375H35.8629V14.8375ZM35.8665 14.8375H36.8665V13.8375H35.8665V14.8375ZM10.5042 27.5836L11.5043 27.5836L11.5042 27.5775L10.5042 27.5836ZM35.8665 27.5836L36.8665 27.5836L36.8665 27.5775L35.8665 27.5836ZM22.0953 1.99999C22.145 1.99999 22.1832 2.03818 22.1832 2.08785H24.1832C24.1832 0.933616 23.2495 -9.90165e-06 22.0953 -9.90165e-06V1.99999ZM14.7704 1.99999H22.0953V-9.90165e-06H14.7704V1.99999ZM14.6825 2.08785C14.6825 2.03818 14.7207 1.99999 14.7704 1.99999V-9.90165e-06C13.6162 -9.90165e-06 12.6825 0.933615 12.6825 2.08785H14.6825ZM14.6825 9.41638V2.08785H12.6825V9.41638H14.6825ZM14.7704 9.50424C14.7207 9.50424 14.6825 9.46604 14.6825 9.41638H12.6825C12.6825 10.5706 13.6162 11.5042 14.7704 11.5042V9.50424ZM22.0953 9.50424H14.7704V11.5042H22.0953V9.50424ZM22.1832 9.41638C22.1832 9.46605 22.145 9.50424 22.0953 9.50424V11.5042C23.2495 11.5042 24.1832 10.5706 24.1832 9.41638H22.1832ZM22.1832 2.08785V9.41638H24.1832V2.08785H22.1832ZM9.41276 2C9.46243 2 9.50062 2.03819 9.50062 2.08786H11.5006C11.5006 0.933625 10.567 0 9.41276 0V2ZM2.08786 2H9.41276V0H2.08786V2ZM2 2.08786C2 2.03819 2.03819 2 2.08786 2V0C0.933625 0 0 0.933625 0 2.08786H2ZM2 9.41639V2.08786H0V9.41639H2ZM2.08786 9.50425C2.03819 9.50425 2 9.46605 2 9.41639H0C0 10.5706 0.933625 11.5042 2.08786 11.5042V9.50425ZM9.41639 9.50425H2.08786V11.5042H9.41639V9.50425ZM9.50425 9.41639C9.50425 9.46605 9.46605 9.50425 9.41639 9.50425V11.5042C10.5706 11.5042 11.5042 10.5706 11.5042 9.41639H9.50425ZM9.50425 2.08786V9.41639H11.5042V2.08786H9.50425ZM10.5006 3.08786H10.5042V1.08786H10.5006V3.08786ZM36.8629 2.08785C36.8629 0.933616 35.9292 -9.90165e-06 34.775 -9.90165e-06V1.99999C34.8247 1.99999 34.8629 2.03818 34.8629 2.08785H36.8629ZM35.8665 1.08785H35.8629V3.08785H35.8665V1.08785ZM36.8665 9.41638V2.08785H34.8665V9.41638H36.8665ZM34.7786 11.5042C35.9329 11.5042 36.8665 10.5706 36.8665 9.41638H34.8665C34.8665 9.46606 34.8283 9.50424 34.7786 9.50424V11.5042ZM27.4501 11.5042H34.7786V9.50424H27.4501V11.5042ZM25.3622 9.41638C25.3622 10.5706 26.2958 11.5042 27.4501 11.5042V9.50424C27.4004 9.50424 27.3622 9.46607 27.3622 9.41638H25.3622ZM25.3622 2.08785V9.41638H27.3622V2.08785H25.3622ZM27.4501 -9.90165e-06C26.2958 -9.90165e-06 25.3622 0.933636 25.3622 2.08785H27.3622C27.3622 2.03816 27.4004 1.99999 27.4501 1.99999V-9.90165e-06ZM34.775 -9.90165e-06H27.4501V1.99999H34.775V-9.90165e-06ZM9.41276 14.7497C9.46243 14.7497 9.50062 14.7879 9.50062 14.8375H11.5006C11.5006 13.6833 10.567 12.7497 9.41276 12.7497V14.7497ZM2.08786 14.7497H9.41276V12.7497H2.08786V14.7497ZM2 14.8375C2 14.7879 2.03819 14.7497 2.08786 14.7497V12.7497C0.933625 12.7497 0 13.6833 0 14.8375H2ZM2 22.1625V14.8375H0V22.1625H2ZM2.08786 22.2503C2.03819 22.2503 2 22.2121 2 22.1625H0C0 23.3167 0.933626 24.2503 2.08786 24.2503V22.2503ZM9.41639 22.2503H2.08786V24.2503H9.41639V22.2503ZM9.50425 22.1625C9.50425 22.2121 9.46606 22.2503 9.41639 22.2503V24.2503C10.5706 24.2503 11.5042 23.3167 11.5042 22.1625H9.50425ZM9.50425 14.8375V22.1625H11.5042V14.8375H9.50425ZM10.5006 15.8375H10.5042V13.8375H10.5006V15.8375ZM24.1832 14.8375C24.1832 13.6833 23.2495 12.7497 22.0953 12.7497V14.7497C22.145 14.7497 22.1832 14.7879 22.1832 14.8375H24.1832ZM24.1832 22.1624V14.8375H22.1832V22.1624H24.1832ZM22.0953 24.2503C23.2495 24.2503 24.1832 23.3167 24.1832 22.1624H22.1832C22.1832 22.2121 22.145 22.2503 22.0953 22.2503V24.2503ZM14.7704 24.2503H22.0953V22.2503H14.7704V24.2503ZM12.6825 22.1624C12.6825 23.3167 13.6162 24.2503 14.7704 24.2503V22.2503C14.7207 22.2503 14.6825 22.2121 14.6825 22.1624H12.6825ZM12.6825 14.8375V22.1624H14.6825V14.8375H12.6825ZM14.7704 12.7497C13.6162 12.7497 12.6825 13.6833 12.6825 14.8375H14.6825C14.6825 14.7879 14.7207 14.7497 14.7704 14.7497V12.7497ZM22.0953 12.7497H14.7704V14.7497H22.0953V12.7497ZM34.775 14.7497C34.8247 14.7497 34.8629 14.7879 34.8629 14.8375H36.8629C36.8629 13.6833 35.9292 12.7497 34.775 12.7497V14.7497ZM27.4501 14.7497H34.775V12.7497H27.4501V14.7497ZM27.3622 14.8375C27.3622 14.7879 27.4004 14.7497 27.4501 14.7497V12.7497C26.2958 12.7497 25.3622 13.6833 25.3622 14.8375H27.3622ZM27.3622 22.1624V14.8375H25.3622V22.1624H27.3622ZM27.4501 22.2503C27.4004 22.2503 27.3622 22.2121 27.3622 22.1624H25.3622C25.3622 23.3167 26.2958 24.2503 27.4501 24.2503V22.2503ZM34.7786 22.2503H27.4501V24.2503H34.7786V22.2503ZM34.8665 22.1624C34.8665 22.2121 34.8283 22.2503 34.7786 22.2503V24.2503C35.9329 24.2503 36.8665 23.3167 36.8665 22.1624H34.8665ZM34.8665 14.8375V22.1624H36.8665V14.8375H34.8665ZM35.8629 15.8375H35.8665V13.8375H35.8629V15.8375ZM9.41276 25.4958H2.08786V27.4958H9.41276V25.4958ZM11.5042 27.5775C11.4973 26.435 10.5703 25.4958 9.41276 25.4958V27.4958C9.4591 27.4958 9.50394 27.5356 9.50427 27.5897L11.5042 27.5775ZM11.5042 34.9121V27.5836H9.50425V34.9121H11.5042ZM9.41639 37C10.5706 37 11.5042 36.0665 11.5042 34.9121H9.50425C9.50425 34.9618 9.4661 35 9.41639 35V37ZM2.08786 37H9.41639V35H2.08786V37ZM0 34.9121C0 36.0665 0.93367 37 2.08786 37V35C2.03815 35 2 34.9618 2 34.9121H0ZM0 27.5836V34.9121H2V27.5836H0ZM2.08786 25.4958C0.933624 25.4958 0 26.4294 0 27.5836H2C2 27.5339 2.0382 27.4958 2.08786 27.4958V25.4958ZM14.7704 27.4957H22.0953V25.4957H14.7704V27.4957ZM14.6825 27.5836C14.6825 27.5339 14.7207 27.4957 14.7704 27.4957V25.4957C13.6162 25.4957 12.6825 26.4293 12.6825 27.5836H14.6825ZM14.6825 34.9121V27.5836H12.6825V34.9121H14.6825ZM14.7704 35C14.7207 35 14.6825 34.9618 14.6825 34.9121H12.6825C12.6825 36.0665 13.6162 37 14.7704 37V35ZM22.0953 35H14.7704V37H22.0953V35ZM22.1832 34.9121C22.1832 34.9618 22.145 35 22.0953 35V37C23.2495 37 24.1832 36.0665 24.1832 34.9121H22.1832ZM22.1832 27.5836V34.9121H24.1832V27.5836H22.1832ZM22.0953 27.4957C22.1428 27.4957 22.1832 27.5354 22.1832 27.5836H24.1832C24.1832 26.4351 23.2517 25.4957 22.0953 25.4957V27.4957ZM34.775 25.4957H27.4501V27.4957H34.775V25.4957ZM36.8665 27.5775C36.8595 26.435 35.9326 25.4957 34.775 25.4957V27.4957C34.8213 27.4957 34.8662 27.5355 34.8665 27.5896L36.8665 27.5775ZM36.8665 34.9121V27.5836H34.8665V34.9121H36.8665ZM34.7786 37C35.9329 37 36.8665 36.0664 36.8665 34.9121H34.8665C34.8665 34.9618 34.8283 35 34.7786 35V37ZM27.4501 37H34.7786V35H27.4501V37ZM25.3622 34.9121C25.3622 36.0664 26.2958 37 27.4501 37V35C27.4004 35 27.3622 34.9618 27.3622 34.9121H25.3622ZM25.3622 27.5836V34.9121H27.3622V27.5836H25.3622ZM27.4501 25.4957C26.2958 25.4957 25.3622 26.4294 25.3622 27.5836H27.3622C27.3622 27.5339 27.4004 27.4957 27.4501 27.4957V25.4957Z" fill="url(#paint0_linear)" mask="url(#path-1-inside-1)"/>
<defs>
<linearGradient id="paint0_linear" x1="1" y1="18" x2="38.3569" y2="18" gradientUnits="userSpaceOnUse">
<stop stop-color="#194163"/>
<stop offset="1" stop-color="#03CFA7"/>
</linearGradient>
</defs>
</svg>
