<svg width="37" height="37" viewBox="0 0 37 37" fill="none" xmlns="http://www.w3.org/2000/svg">
<path fill-rule="evenodd" clip-rule="evenodd" d="M23.1832 2.08785C23.1832 1.4859 22.6973 0.99999 22.0953 0.99999H14.7704C14.1685 0.99999 13.6825 1.4859 13.6825 2.08785V9.41638C13.6825 10.0183 14.1685 10.5042 14.7704 10.5042H22.0953C22.6973 10.5042 23.1832 10.0183 23.1832 9.41638V2.08785ZM10.5006 2.08786C10.5006 1.48591 10.0147 1 9.41276 1H2.08786C1.48591 1 1 1.48591 1 2.08786V9.41639C1 10.0183 1.48591 10.5042 2.08786 10.5042H9.41639C10.0183 10.5042 10.5042 10.0183 10.5042 9.41639V2.08786H10.5006ZM34.775 0.99999C35.3769 0.99999 35.8629 1.4859 35.8629 2.08785H35.8665V9.41638C35.8665 10.0183 35.3806 10.5042 34.7786 10.5042H27.4501C26.8481 10.5042 26.3622 10.0183 26.3622 9.41638V2.08785C26.3622 1.4859 26.8481 0.99999 27.4501 0.99999H34.775ZM10.5006 14.8375C10.5006 14.2356 10.0147 13.7497 9.41276 13.7497H2.08786C1.48591 13.7497 1 14.2356 1 14.8375V22.1625C1 22.7644 1.48591 23.2503 2.08786 23.2503H9.41639C10.0183 23.2503 10.5042 22.7644 10.5042 22.1625V14.8375H10.5006ZM22.0953 13.7497C22.6973 13.7497 23.1832 14.2356 23.1832 14.8375V22.1624C23.1832 22.7644 22.6973 23.2503 22.0953 23.2503H14.7704C14.1685 23.2503 13.6825 22.7644 13.6825 22.1624V14.8375C13.6825 14.2356 14.1685 13.7497 14.7704 13.7497H22.0953ZM35.8629 14.8375C35.8629 14.2356 35.3769 13.7497 34.775 13.7497H27.4501C26.8481 13.7497 26.3622 14.2356 26.3622 14.8375V22.1624C26.3622 22.7644 26.8481 23.2503 27.4501 23.2503H34.7786C35.3806 23.2503 35.8665 22.7644 35.8665 22.1624V14.8375H35.8629ZM2.08786 26.4958H9.41276C10.0147 26.4958 10.5006 26.9853 10.5042 27.5836V34.9121C10.5042 35.5142 10.0183 36 9.41639 36H2.08786C1.48591 36 1 35.5142 1 34.9121V27.5836C1 26.9817 1.48591 26.4958 2.08786 26.4958ZM22.0953 26.4957H14.7704C14.1685 26.4957 13.6825 26.9816 13.6825 27.5836V34.9121C13.6825 35.5141 14.1685 36 14.7704 36H22.0953C22.6973 36 23.1832 35.5141 23.1832 34.9121V27.5836C23.1832 26.9853 22.6972 26.4957 22.0953 26.4957ZM27.4501 26.4957H34.775C35.3769 26.4957 35.8629 26.9853 35.8665 27.5836V34.9121C35.8665 35.5141 35.3806 36 34.7786 36H27.4501C26.8481 36 26.3622 35.5141 26.3622 34.9121V27.5836C26.3622 26.9816 26.8481 26.4957 27.4501 26.4957Z" fill="url(#paint0_linear)"/>
<defs>
<linearGradient id="paint0_linear" x1="36.295" y1="21.4967" x2="0.999385" y2="21.3806" gradientUnits="userSpaceOnUse">
<stop stop-color="#03CFA7"/>
<stop offset="1" stop-color="#194163"/>
<stop offset="1" stop-color="#194163"/>
</linearGradient>
</defs>
</svg>
