<svg width="20" height="20" viewBox="0 0 37 37" fill="none" xmlns="http://www.w3.org/2000/svg">
<mask id="path-1-inside-1" fill="white">
<path fill-rule="evenodd" clip-rule="evenodd" d="M5.64753 4H24.3029C24.8245 4 25.2478 4.42334 25.2478 4.94496V16.9352C25.2478 18.9467 23.6118 20.5827 21.6003 20.5827H10.1732C9.63777 20.5827 9.12498 20.7472 8.68904 21.0577L3.49366 24.7645C2.8756 25.206 2 24.7695 2 23.9953V7.64753C2 5.63604 3.63604 4 5.64753 4ZM8.79487 15.4472H19.7129C20.2345 15.4472 20.6579 15.0245 20.6579 14.5023C20.6579 13.9806 20.2345 13.5573 19.7129 13.5573H8.79487C8.27326 13.5573 7.84991 13.9806 7.84991 14.5023C7.84991 15.0245 8.27326 15.4472 8.79487 15.4472ZM8.79487 11.0374H19.7129C20.2345 11.0374 20.6579 10.6147 20.6579 10.0925C20.6579 9.57084 20.2345 9.1475 19.7129 9.1475H8.79487C8.27326 9.1475 7.84991 9.57084 7.84991 10.0925C7.84991 10.6147 8.27326 11.0374 8.79487 11.0374ZM34.2538 31.3244V14.9773C34.2538 12.9658 32.6177 11.3291 30.6062 11.3291H27.137V16.9352C27.137 19.9887 24.653 22.4727 21.5995 22.4727H11.0059V24.2643C11.0059 26.2758 12.642 27.9125 14.6535 27.9125H26.0805C26.616 27.9125 27.1288 28.0769 27.5647 28.3875L32.7601 32.0936C33.3826 32.5382 34.2538 32.0934 34.2538 31.3244Z"/>
</mask>
<path fill-rule="evenodd" clip-rule="evenodd" d="M5.64753 4H24.3029C24.8245 4 25.2478 4.42334 25.2478 4.94496V16.9352C25.2478 18.9467 23.6118 20.5827 21.6003 20.5827H10.1732C9.63777 20.5827 9.12498 20.7472 8.68904 21.0577L3.49366 24.7645C2.8756 25.206 2 24.7695 2 23.9953V7.64753C2 5.63604 3.63604 4 5.64753 4ZM8.79487 15.4472H19.7129C20.2345 15.4472 20.6579 15.0245 20.6579 14.5023C20.6579 13.9806 20.2345 13.5573 19.7129 13.5573H8.79487C8.27326 13.5573 7.84991 13.9806 7.84991 14.5023C7.84991 15.0245 8.27326 15.4472 8.79487 15.4472ZM8.79487 11.0374H19.7129C20.2345 11.0374 20.6579 10.6147 20.6579 10.0925C20.6579 9.57084 20.2345 9.1475 19.7129 9.1475H8.79487C8.27326 9.1475 7.84991 9.57084 7.84991 10.0925C7.84991 10.6147 8.27326 11.0374 8.79487 11.0374ZM34.2538 31.3244V14.9773C34.2538 12.9658 32.6177 11.3291 30.6062 11.3291H27.137V16.9352C27.137 19.9887 24.653 22.4727 21.5995 22.4727H11.0059V24.2643C11.0059 26.2758 12.642 27.9125 14.6535 27.9125H26.0805C26.616 27.9125 27.1288 28.0769 27.5647 28.3875L32.7601 32.0936C33.3826 32.5382 34.2538 32.0934 34.2538 31.3244Z" fill="url(#paint0_linear)"/>
<path d="M8.68904 21.0577L8.1089 20.2432L8.10824 20.2437L8.68904 21.0577ZM3.49366 24.7645L2.91286 23.9505L2.9124 23.9508L3.49366 24.7645ZM27.137 11.3291V10.3291H26.137V11.3291H27.137ZM11.0059 22.4727V21.4727H10.0059V22.4727H11.0059ZM27.5647 28.3875L28.1454 27.5734L28.145 27.5731L27.5647 28.3875ZM32.7601 32.0936L33.3413 31.2798L33.3408 31.2795L32.7601 32.0936ZM24.3029 3H5.64753V5H24.3029V3ZM26.2478 4.94496C26.2478 3.87112 25.3769 3 24.3029 3V5C24.2721 5 24.2478 4.97556 24.2478 4.94496H26.2478ZM26.2478 16.9352V4.94496H24.2478V16.9352H26.2478ZM21.6003 21.5827C24.1641 21.5827 26.2478 19.499 26.2478 16.9352H24.2478C24.2478 18.3944 23.0595 19.5827 21.6003 19.5827V21.5827ZM10.1732 21.5827H21.6003V19.5827H10.1732V21.5827ZM9.26918 21.8722C9.53627 21.682 9.84639 21.5827 10.1732 21.5827V19.5827C9.42915 19.5827 8.71369 19.8124 8.1089 20.2432L9.26918 21.8722ZM4.07446 25.5785L9.26984 21.8717L8.10824 20.2437L2.91286 23.9505L4.07446 25.5785ZM1 23.9953C1 25.596 2.80573 26.4848 4.07492 25.5782L2.9124 23.9508C2.91238 23.9508 2.91267 23.9506 2.91326 23.9502C2.91386 23.9499 2.91471 23.9494 2.91581 23.9488C2.91807 23.9476 2.92099 23.9463 2.92449 23.9451C2.93172 23.9426 2.93917 23.9412 2.94596 23.9409C2.95861 23.9402 2.96557 23.943 2.9686 23.9446C2.97179 23.9462 2.97972 23.9511 2.98796 23.9639C2.99225 23.9706 2.9957 23.9781 2.99789 23.9855C3.00014 23.9932 3 23.9971 3 23.9953H1ZM1 7.64753V23.9953H3V7.64753H1ZM5.64753 3C3.08376 3 1 5.08376 1 7.64753H3C3 6.18832 4.18832 5 5.64753 5V3ZM19.7129 14.4472H8.79487V16.4472H19.7129V14.4472ZM19.6579 14.5023C19.6579 14.4717 19.6828 14.4472 19.7129 14.4472V16.4472C20.7862 16.4472 21.6579 15.5773 21.6579 14.5023H19.6579ZM19.7129 14.5573C19.6823 14.5573 19.6579 14.533 19.6579 14.5023H21.6579C21.6579 13.4282 20.7867 12.5573 19.7129 12.5573V14.5573ZM8.79487 14.5573H19.7129V12.5573H8.79487V14.5573ZM8.84991 14.5023C8.84991 14.5329 8.82554 14.5573 8.79487 14.5573V12.5573C7.72098 12.5573 6.84991 13.4283 6.84991 14.5023H8.84991ZM8.79487 14.4472C8.82505 14.4472 8.84991 14.4717 8.84991 14.5023H6.84991C6.84991 15.5773 7.72147 16.4472 8.79487 16.4472V14.4472ZM19.7129 10.0374H8.79487V12.0374H19.7129V10.0374ZM19.6579 10.0925C19.6579 10.0619 19.6828 10.0374 19.7129 10.0374V12.0374C20.7862 12.0374 21.6579 11.1675 21.6579 10.0925H19.6579ZM19.7129 10.1475C19.6823 10.1475 19.6579 10.1232 19.6579 10.0925H21.6579C21.6579 9.01851 20.7867 8.1475 19.7129 8.1475V10.1475ZM8.79487 10.1475H19.7129V8.1475H8.79487V10.1475ZM8.84991 10.0925C8.84991 10.1231 8.82556 10.1475 8.79487 10.1475V8.1475C7.72096 8.1475 6.84991 9.01857 6.84991 10.0925H8.84991ZM8.79487 10.0374C8.82506 10.0374 8.84991 10.0619 8.84991 10.0925H6.84991C6.84991 11.1675 7.72146 12.0374 8.79487 12.0374V10.0374ZM33.2538 14.9773V31.3244H35.2538V14.9773H33.2538ZM30.6062 12.3291C32.0652 12.3291 33.2538 13.5179 33.2538 14.9773H35.2538C35.2538 12.4137 33.1702 10.3291 30.6062 10.3291V12.3291ZM27.137 12.3291H30.6062V10.3291H27.137V12.3291ZM28.137 16.9352V11.3291H26.137V16.9352H28.137ZM21.5995 23.4727C25.2052 23.4727 28.137 20.541 28.137 16.9352H26.137C26.137 19.4364 24.1007 21.4727 21.5995 21.4727V23.4727ZM11.0059 23.4727H21.5995V21.4727H11.0059V23.4727ZM12.0059 24.2643V22.4727H10.0059V24.2643H12.0059ZM14.6535 26.9125C13.1945 26.9125 12.0059 25.7237 12.0059 24.2643H10.0059C10.0059 26.8279 12.0895 28.9125 14.6535 28.9125V26.9125ZM26.0805 26.9125H14.6535V28.9125H26.0805V26.9125ZM28.145 27.5731C27.54 27.142 26.8244 26.9125 26.0805 26.9125V28.9125C26.4075 28.9125 26.7175 29.0118 26.9844 29.2019L28.145 27.5731ZM33.3408 31.2795L28.1454 27.5734L26.9839 29.2016L32.1793 32.9077L33.3408 31.2795ZM33.2538 31.3244C33.2538 31.3254 33.2537 31.3211 33.256 31.3136C33.2581 31.3062 33.2615 31.299 33.2655 31.2927C33.2732 31.2807 33.2805 31.2761 33.2837 31.2745C33.2868 31.2729 33.2944 31.2698 33.308 31.2705C33.3153 31.2708 33.323 31.2723 33.3303 31.2748C33.3378 31.2774 33.3415 31.28 33.3413 31.2798L32.1789 32.9074C33.4608 33.8229 35.2538 32.9098 35.2538 31.3244H33.2538Z" fill="url(#paint1_linear)" mask="url(#path-1-inside-1)"/>
<defs>
<linearGradient id="paint0_linear" x1="34.6502" y1="20.5557" x2="1.99954" y2="20.4327" gradientUnits="userSpaceOnUse">
<stop stop-color="#03CFA7"/>
<stop offset="1" stop-color="#194163"/>
<stop offset="1" stop-color="#194163"/>
</linearGradient>
<linearGradient id="paint1_linear" x1="2" y1="17.7313" x2="36.5576" y2="17.7313" gradientUnits="userSpaceOnUse">
<stop stop-color="#194163"/>
<stop offset="1" stop-color="#03CFA7"/>
</linearGradient>
</defs>
</svg>
