<svg width="20" height="20" viewBox="0 0 37 37" fill="none" xmlns="http://www.w3.org/2000/svg">
<mask id="path-1-inside-1" fill="white">
<path fill-rule="evenodd" clip-rule="evenodd" d="M1.7489 24.4936C1.9451 24.5963 2.16317 24.65 2.38459 24.6504C2.66095 24.6449 2.92875 24.5536 3.15091 24.3891L8.3758 20.6882C8.73463 20.4336 9.16366 20.2966 9.60364 20.2963H21.0287C22.1059 20.294 23.1385 19.8663 23.9018 19.1063C24.6651 18.3462 25.0972 17.3154 25.1041 16.2383V4.25589C25.1018 3.89018 24.9549 3.54024 24.6955 3.28246C24.4361 3.02468 24.0853 2.88 23.7195 2.88H5.08412C4.00094 2.88 2.96213 3.31029 2.19621 4.07622C1.43029 4.84214 1 5.88095 1 6.96412V23.2919C1.00324 23.5415 1.07474 23.7854 1.20675 23.9973C1.33877 24.2091 1.52626 24.3808 1.7489 24.4936ZM2.81197 4.69197C3.41458 4.08936 4.2319 3.75082 5.08412 3.75082H23.7195C23.7873 3.74848 23.8549 3.75982 23.9182 3.78415C23.9815 3.80848 24.0392 3.84531 24.088 3.89245C24.1368 3.93959 24.1755 3.99606 24.202 4.0585C24.2285 4.12094 24.2421 4.18807 24.242 4.25589V16.2731C24.242 17.1253 23.9035 17.9427 23.3009 18.5453C22.6983 19.1479 21.8809 19.4864 21.0287 19.4864H9.63848C9.01339 19.482 8.40322 19.6772 7.89685 20.0438L2.67196 23.7447C2.59348 23.7933 2.50302 23.819 2.41072 23.819C2.31842 23.819 2.22795 23.7933 2.14947 23.7447C2.06419 23.7043 1.99247 23.64 1.943 23.5596C1.89354 23.4792 1.86846 23.3862 1.87081 23.2919V6.96412C1.87081 6.1119 2.20936 5.29459 2.81197 4.69197ZM8.22776 15.1933H19.1391V15.2194C19.4862 15.1918 19.8102 15.0345 20.0464 14.7787C20.2827 14.5229 20.4139 14.1874 20.4139 13.8392C20.4139 13.491 20.2827 13.1555 20.0464 12.8997C19.8102 12.6439 19.4862 12.4866 19.1391 12.459H8.22776C8.02993 12.4273 7.82759 12.4389 7.6347 12.4931C7.44181 12.5472 7.26296 12.6425 7.11051 12.7725C6.95806 12.9025 6.83563 13.064 6.75167 13.2459C6.66772 13.4278 6.62424 13.6258 6.62424 13.8261C6.62424 14.0265 6.66772 14.2244 6.75167 14.4063C6.83563 14.5883 6.95806 14.7498 7.11051 14.8798C7.26296 15.0097 7.44181 15.1051 7.6347 15.1592C7.82759 15.2134 8.02993 15.225 8.22776 15.1933ZM7.8675 13.4772C7.96361 13.3827 8.09299 13.3298 8.22776 13.3298H19.1391C19.273 13.3298 19.4015 13.383 19.4962 13.4777C19.5909 13.5724 19.6441 13.7009 19.6441 13.8348C19.6441 13.9696 19.5912 14.099 19.4967 14.1951C19.4023 14.2912 19.2738 14.3463 19.1391 14.3486H8.22776C8.09219 14.3464 7.96281 14.2915 7.86694 14.1957C7.77107 14.0998 7.71622 13.9704 7.71398 13.8348C7.71626 13.7001 7.7714 13.5716 7.8675 13.4772ZM8.22776 10.787H19.1391C19.4862 10.7594 19.8102 10.602 20.0464 10.3462C20.2827 10.0904 20.4139 9.75498 20.4139 9.40676C20.4139 9.05853 20.2827 8.72309 20.0464 8.46729C19.8102 8.21149 19.4862 8.05411 19.1391 8.02652H8.22776C8.03728 8.01137 7.84574 8.03582 7.66517 8.09832C7.48461 8.16081 7.31893 8.26 7.17857 8.38965C7.03821 8.51929 6.92621 8.67659 6.8496 8.85163C6.77299 9.02668 6.73344 9.21568 6.73344 9.40676C6.73344 9.59783 6.77299 9.78684 6.8496 9.96188C6.92621 10.1369 7.03821 10.2942 7.17857 10.4239C7.31893 10.5535 7.48461 10.6527 7.66517 10.7152C7.84574 10.7777 8.03728 10.8021 8.22776 10.787ZM7.8675 9.04472C7.96361 8.95024 8.09299 8.89731 8.22776 8.89733H19.1391C19.273 8.89733 19.4015 8.95054 19.4962 9.04526C19.5909 9.13998 19.6441 9.26845 19.6441 9.4024C19.6441 9.53717 19.5912 9.66655 19.4967 9.76266C19.4023 9.85876 19.2738 9.9139 19.1391 9.91618H8.22776C8.09219 9.91394 7.96281 9.85909 7.86694 9.76322C7.77107 9.66735 7.71622 9.53797 7.71398 9.4024C7.71626 9.26765 7.7714 9.1392 7.8675 9.04472ZM32.7127 32C32.7164 32 32.7202 32 32.7239 32H32.7069C32.7088 32 32.7107 32 32.7127 32ZM31.9231 31.7388C32.1526 31.9063 32.4288 31.9976 32.7127 32C33.0756 31.9962 33.4228 31.851 33.6804 31.5951C33.9393 31.3378 34.0869 30.9891 34.0915 30.6241V14.2877C34.0892 13.2097 33.6618 12.1761 32.902 11.4114C32.1422 10.6468 31.1114 10.2127 30.0335 10.2035H26.1322V16.2383C26.1299 17.591 25.5916 18.8876 24.6351 19.8441C23.6786 20.8006 22.3819 21.3389 21.0293 21.3412H9.98734V23.5618C9.98733 24.6435 10.4164 25.681 11.1805 26.4467C11.9445 27.2123 12.9811 27.6436 14.0627 27.6459H25.4704C25.91 27.6491 26.3382 27.7858 26.6983 28.0378L31.9231 31.7388ZM10.8756 23.5618V22.2121H21.0293C22.6114 22.2075 24.1273 21.5763 25.2452 20.4568C26.3631 19.3372 26.992 17.8204 26.9943 16.2383V11.0743H30.0683C30.9205 11.0743 31.7378 11.4129 32.3405 12.0155C32.9431 12.6181 33.2816 13.4354 33.2816 14.2877V30.6241C33.2797 30.7174 33.2525 30.8083 33.2028 30.8872C33.1531 30.9662 33.0829 31.0301 32.9997 31.0721C32.9165 31.1142 32.8233 31.1328 32.7303 31.126C32.6373 31.1192 32.548 31.0872 32.4718 31.0334L27.2469 27.3324C26.7391 26.9686 26.1299 26.7737 25.5052 26.7751H14.0627C13.2151 26.7682 12.4044 26.4267 11.8075 25.8248C11.2105 25.2229 10.8755 24.4095 10.8756 23.5618Z"/>
</mask>
<path d="M2.38459 24.6504L2.38308 25.6504L2.39376 25.6504L2.40443 25.6502L2.38459 24.6504ZM1.7489 24.4936L2.21248 23.6075L2.20105 23.6017L1.7489 24.4936ZM3.15091 24.3891L2.57289 23.5731L2.56434 23.5792L2.55591 23.5854L3.15091 24.3891ZM8.3758 20.6882L8.95381 21.5042L8.95445 21.5037L8.3758 20.6882ZM9.60364 20.2963L9.60364 19.2963L9.60286 19.2963L9.60364 20.2963ZM21.0287 20.2963L21.0287 21.2963L21.0308 21.2963L21.0287 20.2963ZM23.9018 19.1063L23.1962 18.3976L23.1962 18.3976L23.9018 19.1063ZM25.1041 16.2383L26.1041 16.2447V16.2383H25.1041ZM25.1041 4.25589L26.1042 4.25589L26.1041 4.2496L25.1041 4.25589ZM23.7195 2.88L23.7195 3.88L23.7196 3.88L23.7195 2.88ZM2.19621 4.07622L1.4891 3.36911L1.4891 3.36911L2.19621 4.07622ZM1 23.2919L-8.40356e-05 23.2919L8.40286e-05 23.3049L1 23.2919ZM1.20675 23.9973L2.05544 23.4684L2.05544 23.4684L1.20675 23.9973ZM2.81197 4.69197L3.51908 5.39908L3.51908 5.39908L2.81197 4.69197ZM23.7195 3.75082V4.75082H23.7368L23.754 4.75022L23.7195 3.75082ZM23.9182 3.78415L23.5594 4.71756L23.5594 4.71756L23.9182 3.78415ZM24.088 3.89245L23.393 4.61143L23.393 4.61144L24.088 3.89245ZM24.242 4.25589L23.242 4.2553V4.25589H24.242ZM23.3009 18.5453L22.5938 17.8382L22.5938 17.8382L23.3009 18.5453ZM9.63848 19.4864L9.63134 20.4864H9.63848V19.4864ZM7.89685 20.0438L8.4749 20.8598L8.48319 20.8538L7.89685 20.0438ZM2.67196 23.7447L3.19827 24.595L3.22466 24.5787L3.24998 24.5607L2.67196 23.7447ZM2.14947 23.7447L2.67578 22.8944L2.62825 22.865L2.57774 22.8411L2.14947 23.7447ZM1.943 23.5596L2.79466 23.0355L2.79466 23.0355L1.943 23.5596ZM1.87081 23.2919L2.8705 23.3168L2.87081 23.3043V23.2919H1.87081ZM19.1391 15.1933H20.1391V14.1933H19.1391V15.1933ZM8.22776 15.1933V14.1933H8.1482L8.06965 14.2059L8.22776 15.1933ZM19.1391 15.2194H18.1391V16.3021L19.2183 16.2163L19.1391 15.2194ZM20.0464 14.7787L20.781 15.4572L20.781 15.4572L20.0464 14.7787ZM20.0464 12.8997L20.781 12.2212L20.781 12.2212L20.0464 12.8997ZM19.1391 12.459L19.2183 11.4621L19.1787 11.459H19.1391V12.459ZM8.22776 12.459L8.06965 13.4464L8.1482 13.459H8.22776V12.459ZM7.6347 12.4931L7.90492 13.4559L7.90492 13.4559L7.6347 12.4931ZM7.11051 12.7725L7.75931 13.5335L7.75931 13.5335L7.11051 12.7725ZM6.75167 13.2459L5.84371 12.8269L5.84371 12.8269L6.75167 13.2459ZM6.75167 14.4063L5.84371 14.8254L5.84371 14.8254L6.75167 14.4063ZM7.11051 14.8798L7.75931 14.1188L7.75931 14.1188L7.11051 14.8798ZM7.6347 15.1592L7.90492 14.1964L7.90492 14.1964L7.6347 15.1592ZM8.22776 13.3298L8.22761 14.3298H8.22776V13.3298ZM7.8675 13.4772L7.16647 12.764L7.16646 12.764L7.8675 13.4772ZM19.4962 13.4777L18.7891 14.1848L18.7891 14.1848L19.4962 13.4777ZM19.6441 13.8348L18.6441 13.8348L18.6441 13.835L19.6441 13.8348ZM19.4967 14.1951L18.7836 13.4941L18.7836 13.4941L19.4967 14.1951ZM19.1391 14.3486V15.3486H19.1475L19.156 15.3485L19.1391 14.3486ZM8.22776 14.3486L8.21123 15.3485L8.21949 15.3486H8.22776V14.3486ZM7.86694 14.1957L7.15983 14.9028L7.15983 14.9028L7.86694 14.1957ZM7.71398 13.8348L6.71412 13.8179L6.71384 13.8346L6.71411 13.8514L7.71398 13.8348ZM19.1391 10.787V11.787H19.1787L19.2183 11.7839L19.1391 10.787ZM8.22776 10.787V9.787H8.18807L8.14852 9.79014L8.22776 10.787ZM20.0464 10.3462L20.781 11.0247L20.781 11.0247L20.0464 10.3462ZM20.0464 8.46729L20.781 7.78878L20.781 7.78878L20.0464 8.46729ZM19.1391 8.02652L19.2183 7.02966L19.1787 7.02652H19.1391V8.02652ZM8.22776 8.02652L8.14851 9.02337L8.18807 9.02652H8.22776V8.02652ZM7.66517 8.09832L7.99225 9.04332L7.99225 9.04332L7.66517 8.09832ZM6.8496 8.85163L7.76571 9.25256L7.76571 9.25256L6.8496 8.85163ZM6.8496 9.96188L7.76571 9.56095L7.76571 9.56095L6.8496 9.96188ZM7.66517 10.7152L7.99225 9.7702L7.99225 9.7702L7.66517 10.7152ZM8.22776 8.89733L8.22762 9.89733H8.22776V8.89733ZM19.4962 9.04526L18.7891 9.75237L18.7891 9.75237L19.4962 9.04526ZM19.6441 9.4024L18.6441 9.4024L18.6441 9.40254L19.6441 9.4024ZM19.1391 9.91618V10.9162H19.1475L19.156 10.916L19.1391 9.91618ZM8.22776 9.91618L8.21123 10.916L8.21949 10.9162H8.22776V9.91618ZM7.71398 9.4024L6.71412 9.38545L6.71384 9.40219L6.71411 9.41893L7.71398 9.4024ZM32.7069 32L32.701 31L32.7069 33V32ZM31.9231 31.7388L32.5127 30.9311L32.507 30.9269L32.5012 30.9227L31.9231 31.7388ZM33.6804 31.5951L34.3852 32.3044L34.3853 32.3044L33.6804 31.5951ZM34.0915 30.6241L35.0915 30.6366V30.6241H34.0915ZM34.0915 14.2877L35.0915 14.2877L35.0915 14.2856L34.0915 14.2877ZM30.0335 10.2035L30.042 9.20353H30.0335V10.2035ZM26.1322 10.2035V9.20353H25.1322V10.2035H26.1322ZM26.1322 16.2383L27.1322 16.24V16.2383H26.1322ZM24.6351 19.8441L23.928 19.137L23.928 19.137L24.6351 19.8441ZM21.0293 21.3412L21.0293 22.3412L21.031 22.3412L21.0293 21.3412ZM9.98734 21.3412V20.3412H8.98734V21.3412H9.98734ZM9.98734 23.5618L10.9873 23.5618V23.5618H9.98734ZM11.1805 26.4467L10.4726 27.153L10.4726 27.153L11.1805 26.4467ZM14.0627 27.6459L14.0606 28.6459H14.0627V27.6459ZM25.4704 27.6459L25.4776 26.6459H25.4704V27.6459ZM26.6983 28.0378L27.2763 27.2218L27.2717 27.2186L26.6983 28.0378ZM10.8756 22.2121V21.2121H9.87557V22.2121H10.8756ZM10.8756 23.5618L11.8756 23.5619V23.5618H10.8756ZM21.0293 22.2121L21.0293 23.2121L21.0322 23.2121L21.0293 22.2121ZM26.9943 16.2383L27.9943 16.2397V16.2383H26.9943ZM26.9943 11.0743V10.0743H25.9943V11.0743H26.9943ZM33.2816 30.6241L34.2814 30.6446L34.2816 30.6344V30.6241H33.2816ZM32.7303 31.126L32.8035 30.1287L32.8035 30.1287L32.7303 31.126ZM32.4718 31.0334L31.8937 31.8494L31.8953 31.8505L32.4718 31.0334ZM27.2469 27.3324L26.6644 28.1453L26.6689 28.1485L27.2469 27.3324ZM25.5052 26.7751L25.5052 27.7751L25.5076 27.7751L25.5052 26.7751ZM14.0627 26.7751L14.0546 27.7751H14.0627V26.7751ZM11.8075 25.8248L11.0975 26.529L11.0975 26.529L11.8075 25.8248ZM2.38611 23.6504C2.32562 23.6503 2.26604 23.6356 2.21244 23.6075L1.28536 25.3797C1.62415 25.5569 2.00072 25.6498 2.38308 25.6504L2.38611 23.6504ZM2.55591 23.5854C2.5005 23.6264 2.43369 23.6492 2.36476 23.6506L2.40443 25.6502C2.8882 25.6406 3.35701 25.4807 3.74591 25.1928L2.55591 23.5854ZM7.79778 19.8721L2.57289 23.5731L3.72893 25.2051L8.95381 21.5042L7.79778 19.8721ZM9.60286 19.2963C8.9558 19.2968 8.32486 19.4982 7.79714 19.8726L8.95445 21.5037C9.14441 21.369 9.37152 21.2965 9.60443 21.2963L9.60286 19.2963ZM21.0287 19.2963H9.60364V21.2963H21.0287V19.2963ZM23.1962 18.3976C22.6198 18.9716 21.84 19.2946 21.0266 19.2963L21.0308 21.2963C22.3717 21.2935 23.6572 20.761 24.6074 19.8149L23.1962 18.3976ZM24.1042 16.2319C24.099 17.0453 23.7726 17.8237 23.1962 18.3976L24.6074 19.8149C25.5576 18.8688 26.0955 17.5856 26.1041 16.2447L24.1042 16.2319ZM24.1041 4.25589V16.2383H26.1041V4.25589H24.1041ZM23.9907 3.99179C24.0627 4.0634 24.1035 4.1606 24.1042 4.26218L26.1041 4.2496C26.1002 3.61977 25.8472 3.01709 25.4004 2.57313L23.9907 3.99179ZM23.7196 3.88C23.8211 3.88 23.9186 3.92019 23.9907 3.99179L25.4004 2.57313C24.9536 2.12917 24.3494 1.87999 23.7195 1.88L23.7196 3.88ZM5.08412 3.88H23.7195V1.88H5.08412V3.88ZM2.90332 4.78332C3.4817 4.20494 4.26616 3.88 5.08412 3.88V1.88C3.73573 1.88 2.44256 2.41565 1.4891 3.36911L2.90332 4.78332ZM2 6.96412C2 6.14616 2.32493 5.36171 2.90332 4.78332L1.4891 3.36911C0.535646 4.32257 0 5.61573 0 6.96412H2ZM2 23.2919V6.96412H0V23.2919H2ZM2.05544 23.4684C2.01999 23.4115 2.00078 23.346 1.99992 23.2789L8.40286e-05 23.3049C0.00568658 23.737 0.129489 24.1594 0.358067 24.5261L2.05544 23.4684ZM2.20105 23.6017C2.14125 23.5714 2.0909 23.5253 2.05544 23.4684L0.358065 24.5261C0.586643 24.8929 0.911274 25.1901 1.29675 25.3856L2.20105 23.6017ZM5.08412 2.75082C3.96668 2.75082 2.89501 3.19472 2.10486 3.98487L3.51908 5.39908C3.93415 4.98401 4.49711 4.75082 5.08412 4.75082V2.75082ZM23.7195 2.75082H5.08412V4.75082H23.7195V2.75082ZM24.277 2.85074C24.0883 2.77822 23.887 2.74445 23.6851 2.75141L23.754 4.75022C23.6876 4.75252 23.6214 4.74141 23.5594 4.71756L24.277 2.85074ZM24.783 3.17347C24.6377 3.033 24.4656 2.92324 24.277 2.85073L23.5594 4.71756C23.4974 4.69372 23.4408 4.65763 23.393 4.61143L24.783 3.17347ZM25.1227 3.66827C25.0438 3.4822 24.9283 3.31392 24.783 3.17346L23.393 4.61144C23.3452 4.56525 23.3072 4.50991 23.2813 4.44872L25.1227 3.66827ZM25.242 4.25648C25.2421 4.05439 25.2016 3.85434 25.1227 3.66827L23.2813 4.44872C23.2553 4.38754 23.242 4.32176 23.242 4.2553L25.242 4.25648ZM25.242 16.2731V4.25589H23.242V16.2731H25.242ZM24.008 19.2524C24.7981 18.4622 25.242 17.3906 25.242 16.2731H23.242C23.242 16.8601 23.0088 17.4231 22.5938 17.8382L24.008 19.2524ZM21.0287 20.4864C22.1462 20.4864 23.2178 20.0425 24.008 19.2524L22.5938 17.8382C22.1787 18.2532 21.6157 18.4864 21.0287 18.4864V20.4864ZM9.63848 20.4864H21.0287V18.4864H9.63848V20.4864ZM8.48319 20.8538C8.81701 20.6122 9.21926 20.4835 9.63134 20.4864L9.64561 18.4865C8.80752 18.4805 7.98942 18.7423 7.31051 19.2337L8.48319 20.8538ZM3.24998 24.5607L8.47487 20.8598L7.31883 19.2277L2.09395 22.9287L3.24998 24.5607ZM2.41072 24.819C2.68898 24.819 2.9617 24.7414 3.19827 24.595L2.14565 22.8944C2.22527 22.8451 2.31706 22.819 2.41072 22.819V24.819ZM1.62317 24.595C1.85974 24.7414 2.13246 24.819 2.41072 24.819V22.819C2.50438 22.819 2.59617 22.8451 2.67578 22.8944L1.62317 24.595ZM1.09134 24.0837C1.24224 24.3289 1.46105 24.5251 1.72121 24.6484L2.57774 22.8411C2.66733 22.8835 2.74269 22.9511 2.79466 23.0355L1.09134 24.0837ZM0.871125 23.267C0.863951 23.5548 0.940452 23.8385 1.09134 24.0837L2.79466 23.0355C2.84663 23.12 2.87297 23.2177 2.8705 23.3168L0.871125 23.267ZM0.870814 6.96412V23.2919H2.87081V6.96412H0.870814ZM2.10486 3.98487C1.31471 4.77502 0.870814 5.84669 0.870814 6.96412H2.87081C2.87081 6.37712 3.104 5.81416 3.51908 5.39908L2.10486 3.98487ZM19.1391 14.1933H8.22776V16.1933H19.1391V14.1933ZM20.1391 15.2194V15.1933H18.1391V15.2194H20.1391ZM19.3119 14.1002C19.2462 14.1712 19.1562 14.2149 19.0598 14.2226L19.2183 16.2163C19.8161 16.1688 20.3741 15.8977 20.781 15.4572L19.3119 14.1002ZM19.4139 13.8392C19.4139 13.9359 19.3775 14.0291 19.3119 14.1002L20.781 15.4572C21.188 15.0166 21.4139 14.4389 21.4139 13.8392H19.4139ZM19.3119 13.5782C19.3775 13.6493 19.4139 13.7425 19.4139 13.8392H21.4139C21.4139 13.2395 21.188 12.6618 20.781 12.2212L19.3119 13.5782ZM19.0598 13.4558C19.1562 13.4635 19.2462 13.5072 19.3119 13.5782L20.781 12.2212C20.3741 11.7807 19.8161 11.5096 19.2183 11.4621L19.0598 13.4558ZM8.22776 13.459H19.1391V11.459H8.22776V13.459ZM7.90492 13.4559C7.95849 13.4408 8.0147 13.4376 8.06965 13.4464L8.38587 11.4715C8.04517 11.417 7.69669 11.437 7.36448 11.5303L7.90492 13.4559ZM7.75931 13.5335C7.80166 13.4974 7.85133 13.4709 7.90492 13.4559L7.36448 11.5303C7.03228 11.6235 6.72427 11.7877 6.46171 12.0116L7.75931 13.5335ZM7.65964 13.665C7.68296 13.6144 7.71696 13.5696 7.75931 13.5335L6.46171 12.0116C6.19915 12.2354 5.9883 12.5136 5.84371 12.8269L7.65964 13.665ZM7.62424 13.8261C7.62424 13.7705 7.63632 13.7155 7.65964 13.665L5.84371 12.8269C5.69912 13.1402 5.62424 13.4811 5.62424 13.8261H7.62424ZM7.65964 13.9873C7.63632 13.9368 7.62424 13.8818 7.62424 13.8261H5.62424C5.62424 14.1712 5.69912 14.5121 5.84371 14.8254L7.65964 13.9873ZM7.75931 14.1188C7.71697 14.0827 7.68296 14.0378 7.65964 13.9873L5.84371 14.8254C5.98829 15.1387 6.19915 15.4168 6.46171 15.6407L7.75931 14.1188ZM7.90492 14.1964C7.85134 14.1814 7.80166 14.1549 7.75931 14.1188L6.46171 15.6407C6.72427 15.8646 7.03228 16.0288 7.36448 16.122L7.90492 14.1964ZM8.06965 14.2059C8.0147 14.2147 7.95849 14.2115 7.90492 14.1964L7.36448 16.122C7.69669 16.2153 8.04517 16.2353 8.38587 16.1807L8.06965 14.2059ZM8.22791 12.3298C7.83083 12.3297 7.44963 12.4857 7.16647 12.764L8.56854 14.1903C8.47759 14.2797 8.35515 14.3298 8.22761 14.3298L8.22791 12.3298ZM19.1391 12.3298H8.22776V14.3298H19.1391V12.3298ZM20.2033 12.7706C19.921 12.4883 19.5382 12.3298 19.1391 12.3298V14.3298C19.0078 14.3298 18.8819 14.2776 18.7891 14.1848L20.2033 12.7706ZM20.6441 13.8348C20.6441 13.4357 20.4856 13.0529 20.2033 12.7706L18.7891 14.1848C18.6963 14.092 18.6441 13.9661 18.6441 13.8348H20.6441ZM20.2099 14.8961C20.4882 14.613 20.6442 14.2318 20.6441 13.8347L18.6441 13.835C18.6441 13.7075 18.6942 13.585 18.7836 13.4941L20.2099 14.8961ZM19.156 15.3485C19.553 15.3418 19.9315 15.1793 20.2099 14.8961L18.7836 13.4941C18.873 13.4031 18.9946 13.3509 19.1221 13.3488L19.156 15.3485ZM8.22776 15.3486H19.1391V13.3486H8.22776V15.3486ZM7.15983 14.9028C7.43919 15.1821 7.81621 15.342 8.21123 15.3485L8.24429 13.3488C8.36818 13.3508 8.48643 13.4009 8.57405 13.4886L7.15983 14.9028ZM6.71411 13.8514C6.72064 14.2464 6.88047 14.6234 7.15983 14.9028L8.57405 13.4886C8.66166 13.5762 8.71179 13.6944 8.71384 13.8183L6.71411 13.8514ZM7.16646 12.764C6.8833 13.0424 6.72085 13.4209 6.71412 13.8179L8.71383 13.8518C8.71167 13.9793 8.65949 14.1009 8.56854 14.1903L7.16646 12.764ZM19.1391 9.787H8.22776V11.787H19.1391V9.787ZM19.3119 9.66771C19.2462 9.73876 19.1562 9.78248 19.0598 9.79014L19.2183 11.7839C19.8161 11.7363 20.3741 11.4653 20.781 11.0247L19.3119 9.66771ZM19.4139 9.40676C19.4139 9.50348 19.3775 9.59666 19.3119 9.66771L20.781 11.0247C21.188 10.5842 21.4139 10.0065 21.4139 9.40676H19.4139ZM19.3119 9.1458C19.3775 9.21686 19.4139 9.31003 19.4139 9.40676H21.4139C21.4139 8.80703 21.188 8.22933 20.781 7.78878L19.3119 9.1458ZM19.0598 9.02337C19.1562 9.03104 19.2462 9.07475 19.3119 9.14581L20.781 7.78878C20.3741 7.34823 19.8161 7.07718 19.2183 7.02966L19.0598 9.02337ZM8.22776 9.02652H19.1391V7.02652H8.22776V9.02652ZM7.99225 9.04332C8.0424 9.02596 8.09561 9.01917 8.14851 9.02337L8.307 7.02966C7.97896 7.00358 7.64907 7.04569 7.3381 7.15332L7.99225 9.04332ZM7.85709 9.12424C7.89607 9.08823 7.94209 9.06067 7.99225 9.04332L7.3381 7.15332C7.02713 7.26095 6.7418 7.43178 6.50006 7.65506L7.85709 9.12424ZM7.76571 9.25256C7.78699 9.20394 7.8181 9.16025 7.85709 9.12424L6.50006 7.65506C6.25833 7.87834 6.06542 8.14924 5.93349 8.45071L7.76571 9.25256ZM7.73344 9.40676C7.73344 9.35368 7.74443 9.30118 7.76571 9.25256L5.93349 8.4507C5.80155 8.75217 5.73344 9.07768 5.73344 9.40676H7.73344ZM7.76571 9.56095C7.74443 9.51233 7.73344 9.45983 7.73344 9.40676H5.73344C5.73344 9.73583 5.80155 10.0613 5.93349 10.3628L7.76571 9.56095ZM7.85709 9.68928C7.8181 9.65326 7.78699 9.60957 7.76571 9.56095L5.93349 10.3628C6.06542 10.6643 6.25833 10.9352 6.50006 11.1585L7.85709 9.68928ZM7.99225 9.7702C7.94209 9.75284 7.89607 9.72529 7.85709 9.68928L6.50006 11.1585C6.7418 11.3817 7.02713 11.5526 7.3381 11.6602L7.99225 9.7702ZM8.14852 9.79014C8.09561 9.79435 8.0424 9.78756 7.99225 9.7702L7.3381 11.6602C7.64908 11.7678 7.97896 11.8099 8.307 11.7839L8.14852 9.79014ZM8.2279 7.89733C7.83083 7.89727 7.44963 8.05323 7.16647 8.3316L8.56854 9.75785C8.47759 9.84726 8.35515 9.89735 8.22762 9.89733L8.2279 7.89733ZM19.1391 7.89733H8.22776V9.89733H19.1391V7.89733ZM20.2033 8.33816C19.921 8.0559 19.5382 7.89733 19.1391 7.89733V9.89733C19.0078 9.89733 18.8819 9.84519 18.7891 9.75237L20.2033 8.33816ZM20.6441 9.4024C20.6441 9.00324 20.4856 8.62041 20.2033 8.33815L18.7891 9.75237C18.6963 9.65955 18.6441 9.53366 18.6441 9.4024H20.6441ZM20.2099 10.4637C20.4882 10.1805 20.6442 9.79933 20.6441 9.40226L18.6441 9.40254C18.6441 9.27501 18.6942 9.15257 18.7836 9.06162L20.2099 10.4637ZM19.156 10.916C19.553 10.9093 19.9315 10.7469 20.2099 10.4637L18.7836 9.06162C18.873 8.97067 18.9946 8.91849 19.1221 8.91633L19.156 10.916ZM8.22776 10.9162H19.1391V8.91618H8.22776V10.9162ZM7.15983 10.4703C7.43919 10.7497 7.81621 10.9095 8.21123 10.916L8.24429 8.91632C8.36818 8.91837 8.48643 8.9685 8.57405 9.05611L7.15983 10.4703ZM6.71411 9.41893C6.72064 9.81395 6.88047 10.191 7.15983 10.4703L8.57405 9.05611C8.66166 9.14373 8.71179 9.26198 8.71384 9.38587L6.71411 9.41893ZM7.16647 8.3316C6.8833 8.60996 6.72085 8.98844 6.71412 9.38545L8.71383 9.41935C8.71167 9.54687 8.65949 9.66844 8.56854 9.75785L7.16647 8.3316ZM32.7239 31C32.7232 31 32.7222 31 32.7208 31L32.7045 32.9999C32.7106 33 32.7171 33 32.7239 33V31ZM32.7069 33H32.7239V31H32.7069V33ZM32.7028 31C32.7022 31 32.7017 31 32.7014 31C32.7011 31 32.701 31 32.701 31L32.7128 33C32.7166 33 32.72 32.9999 32.7225 32.9999L32.7028 31ZM32.7211 31C32.6462 30.9994 32.5733 30.9753 32.5127 30.9311L31.3335 32.5465C31.7319 32.8373 32.2114 32.9958 32.7043 32.9999L32.7211 31ZM32.9755 30.8857C32.9028 30.958 32.8048 30.999 32.7024 31L32.723 32.9999C33.3464 32.9935 33.9428 32.744 34.3852 32.3044L32.9755 30.8857ZM33.0915 30.6116C33.0903 30.7147 33.0486 30.8131 32.9755 30.8857L34.3853 32.3044C34.83 31.8624 35.0836 31.2636 35.0914 30.6366L33.0915 30.6116ZM33.0915 14.2877V30.6241H35.0915V14.2877H33.0915ZM32.1926 12.1163C32.7668 12.6941 33.0898 13.4752 33.0915 14.2897L35.0915 14.2856C35.0887 12.9442 34.5568 11.6581 33.6114 10.7066L32.1926 12.1163ZM30.025 11.2035C30.8395 11.2104 31.6185 11.5384 32.1926 12.1163L33.6114 10.7066C32.6659 9.7551 31.3833 9.21498 30.042 9.20357L30.025 11.2035ZM26.1322 11.2035H30.0335V9.20353H26.1322V11.2035ZM27.1322 16.2383V10.2035H25.1322V16.2383H27.1322ZM25.3422 20.5512C26.4858 19.4076 27.1295 17.8573 27.1322 16.24L25.1322 16.2366C25.1304 17.3246 24.6973 18.3676 23.928 19.137L25.3422 20.5512ZM21.031 22.3412C22.6483 22.3385 24.1986 21.6948 25.3422 20.5512L23.928 19.137C23.1586 19.9063 22.1156 20.3394 21.0276 20.3412L21.031 22.3412ZM9.98734 22.3412H21.0293V20.3412H9.98734V22.3412ZM10.9873 23.5618V21.3412H8.98734V23.5618H10.9873ZM11.8883 25.7403C11.3114 25.1621 10.9873 24.3786 10.9873 23.5618L8.98734 23.5618C8.98733 24.9083 9.52149 26.1999 10.4726 27.153L11.8883 25.7403ZM14.0649 26.6459C13.2481 26.6442 12.4653 26.3185 11.8883 25.7403L10.4726 27.153C11.4237 28.1062 12.7141 28.6431 14.0606 28.6459L14.0649 26.6459ZM25.4704 26.6459H14.0627V28.6459H25.4704V26.6459ZM27.2717 27.2186C26.7455 26.8503 26.1198 26.6506 25.4776 26.646L25.4632 28.6459C25.7001 28.6476 25.9308 28.7212 26.1248 28.8571L27.2717 27.2186ZM32.5012 30.9227L27.2763 27.2218L26.1202 28.8538L31.3451 32.5548L32.5012 30.9227ZM9.87557 22.2121V23.5618H11.8756V22.2121H9.87557ZM21.0293 21.2121H10.8756V23.2121H21.0293V21.2121ZM24.5376 19.7502C23.6065 20.6826 22.344 21.2082 21.0263 21.2121L21.0322 23.2121C22.8788 23.2067 24.648 22.4701 25.9528 21.1634L24.5376 19.7502ZM25.9943 16.2368C25.9924 17.5545 25.4686 18.8178 24.5376 19.7502L25.9528 21.1634C27.2576 19.8567 27.9917 18.0863 27.9943 16.2397L25.9943 16.2368ZM25.9943 11.0743V16.2383H27.9943V11.0743H25.9943ZM30.0683 10.0743H26.9943V12.0743H30.0683V10.0743ZM33.0476 11.3084C32.2574 10.5182 31.1857 10.0743 30.0683 10.0743V12.0743C30.6553 12.0743 31.2183 12.3075 31.6334 12.7226L33.0476 11.3084ZM34.2816 14.2877C34.2816 13.1702 33.8377 12.0985 33.0476 11.3084L31.6334 12.7226C32.0484 13.1377 32.2816 13.7006 32.2816 14.2877H34.2816ZM34.2816 30.6241V14.2877H32.2816V30.6241H34.2816ZM34.0491 31.4199C34.1955 31.1873 34.2758 30.9193 34.2814 30.6446L32.2818 30.6036C32.2836 30.5154 32.3094 30.4293 32.3564 30.3546L34.0491 31.4199ZM33.4507 31.9646C33.696 31.8407 33.9028 31.6524 34.0491 31.4199L32.3564 30.3546C32.4034 30.2799 32.4699 30.2195 32.5486 30.1796L33.4507 31.9646ZM32.6572 32.1233C32.9312 32.1434 33.2055 32.0886 33.4507 31.9646L32.5486 30.1796C32.6274 30.1398 32.7155 30.1222 32.8035 30.1287L32.6572 32.1233ZM31.8953 31.8505C32.1198 32.0089 32.3831 32.1032 32.6572 32.1233L32.8035 30.1287C32.8915 30.1351 32.9761 30.1654 33.0482 30.2163L31.8953 31.8505ZM26.6689 28.1485L31.8937 31.8494L33.0498 30.2174L27.8249 26.5164L26.6689 28.1485ZM25.5076 27.7751C25.9225 27.7742 26.3272 27.9037 26.6644 28.1453L27.8293 26.5196C27.1511 26.0336 26.3373 25.7732 25.5029 25.7751L25.5076 27.7751ZM14.0627 27.7751H25.5052V25.7751H14.0627V27.7751ZM11.0975 26.529C11.8802 27.3182 12.9431 27.7661 14.0546 27.7751L14.0709 25.7752C13.487 25.7704 12.9286 25.5351 12.5175 25.1206L11.0975 26.529ZM9.87557 23.5618C9.87553 24.6733 10.3147 25.7398 11.0975 26.529L12.5175 25.1206C12.1063 24.706 11.8755 24.1458 11.8756 23.5619L9.87557 23.5618Z" fill="url(#paint0_linear)" mask="url(#path-1-inside-1)"/>
<defs>
<linearGradient id="paint0_linear" x1="1" y1="17.024" x2="36.455" y2="17.024" gradientUnits="userSpaceOnUse">
<stop stop-color="#194163"/>
<stop offset="1" stop-color="#03CFA7"/>
</linearGradient>
</defs>
</svg>
