<svg width="30" height="30" viewBox="0 0 37 37" fill="none" xmlns="http://www.w3.org/2000/svg">
<mask id="path-1-inside-1" fill="white">
<path d="M10.8804 6.64738C10.8804 4.08076 12.9465 2 15.4954 2C18.0439 2 20.1102 4.08076 20.1102 6.64738C20.1102 9.214 18.0439 11.2947 15.4954 11.2947C12.9465 11.2948 10.8804 9.214 10.8804 6.64738ZM17.7131 14.4609C17.7594 13.449 18.1053 12.5123 18.6618 11.738C18.2713 11.6556 17.8676 11.6119 17.4534 11.6119H13.538C13.125 11.6119 12.7218 11.6553 12.3333 11.7367C12.9255 12.5639 13.2797 13.5743 13.2855 14.668C14.0054 14.2693 14.8314 14.0422 15.7088 14.0422C16.4205 14.0422 17.0981 14.1916 17.7131 14.4609ZM18.4943 14.8781C19.8347 15.7246 20.7747 17.1565 20.9466 18.8193C21.4928 19.0763 22.0997 19.2246 22.7427 19.2246C25.091 19.2246 26.9944 17.3076 26.9944 14.9427C26.9944 12.5775 25.091 10.6608 22.7427 10.6608C20.4159 10.6609 18.5296 12.5436 18.4943 14.8781ZM15.7088 23.6456C18.0566 23.6456 19.9602 21.728 19.9602 19.3638C19.9602 16.9992 18.0566 15.0819 15.7088 15.0819C13.3607 15.0819 11.4563 16.9992 11.4563 19.3638C11.4564 21.728 13.3607 23.6456 15.7088 23.6456ZM17.5123 23.937H13.9049C10.9033 23.937 8.46068 26.3967 8.46068 29.4201V33.8637L8.47217 33.9333L8.77584 34.0283C11.6406 34.9294 14.1293 35.2308 16.178 35.2308C20.1785 35.2308 22.4982 34.0819 22.6411 34.0084L22.9253 33.8636H22.9554V29.42C22.9555 26.3967 20.5143 23.937 17.5123 23.937ZM24.5472 19.5169H20.9669C20.928 20.9596 20.3166 22.2588 19.3497 23.1927C22.0179 23.9917 23.9701 26.4834 23.9701 29.4268V30.796C27.5044 30.665 29.5415 29.6567 29.6757 29.5887L29.9599 29.4432H29.9901V24.9988C29.9905 21.9762 27.5481 19.5169 24.5472 19.5169ZM25.5042 10.5695C26.8447 11.4162 27.7846 12.8481 27.9561 14.5109C28.5024 14.768 29.1093 14.916 29.7523 14.916C32.101 14.916 34.0043 12.9992 34.0043 10.6347C34.0043 8.26946 32.101 6.35284 29.7523 6.35284C27.4258 6.35257 25.5396 8.23564 25.5042 10.5695ZM31.5563 15.2083H27.9767C27.9379 16.6511 27.3266 17.9503 26.3597 18.8841C29.0278 19.6828 30.98 22.1749 30.98 25.1183V26.4875C34.514 26.3567 36.5515 25.3486 36.6856 25.2801L36.9694 25.135H37V20.6901C37.0004 17.6678 34.558 15.2083 31.5563 15.2083ZM8.24854 19.2247C9.08033 19.2247 9.85375 18.98 10.5097 18.5635C10.7182 17.1945 11.447 15.9981 12.4877 15.1836C12.492 15.1032 12.4993 15.0239 12.4993 14.9427C12.4993 12.5776 10.5954 10.6609 8.24854 10.6609C5.89965 10.6609 3.99654 12.5775 3.99654 14.9427C3.99654 17.308 5.89958 19.2247 8.24854 19.2247ZM12.0669 23.1927C11.1045 22.2633 10.4952 20.9712 10.4503 19.5368C10.3179 19.5269 10.1865 19.5169 10.0512 19.5169H6.44421C3.44217 19.5169 1 21.9762 1 24.9992V29.4432L1.01115 29.5124L1.31523 29.6079C3.61288 30.3315 5.66427 30.664 7.44597 30.768V29.4263C7.4463 26.4834 9.39804 23.9913 12.0669 23.1927Z"/>
</mask>
<path d="M15.4954 11.2947L15.4954 10.2947L15.4954 10.2947L15.4954 11.2947ZM17.7131 14.4609L17.312 15.3769L18.6456 15.961L18.7121 14.5066L17.7131 14.4609ZM18.6618 11.738L19.4739 12.3216L20.3691 11.0761L18.8682 10.7595L18.6618 11.738ZM12.3333 11.7367L12.1283 10.7579L10.6277 11.0721L11.5201 12.3188L12.3333 11.7367ZM13.2855 14.668L12.2855 14.6733L12.2944 16.3601L13.7701 15.5428L13.2855 14.668ZM18.4943 14.8781L17.4944 14.863L17.4859 15.424L17.9603 15.7236L18.4943 14.8781ZM20.9466 18.8193L19.9519 18.9221L20.01 19.4836L20.5207 19.7241L20.9466 18.8193ZM22.7427 10.6608L22.7427 9.66085L22.7427 9.66085L22.7427 10.6608ZM11.4563 19.3638L10.4563 19.3638L10.4563 19.3638L11.4563 19.3638ZM8.46068 33.8637H7.46068V33.9456L7.47403 34.0265L8.46068 33.8637ZM8.47217 33.9333L7.48551 34.0961L7.58575 34.7036L8.17334 34.8876L8.47217 33.9333ZM8.77584 34.0283L9.07589 33.0744L9.07467 33.074L8.77584 34.0283ZM22.6411 34.0084L22.1871 33.1174L22.1837 33.1192L22.6411 34.0084ZM22.9253 33.8636V32.8636H22.6851L22.4712 32.9726L22.9253 33.8636ZM22.9554 33.8636V34.8636H23.9554V33.8636H22.9554ZM22.9554 29.42L21.9554 29.42V29.42H22.9554ZM20.9669 19.5169V18.5169H19.9935L19.9672 19.4899L20.9669 19.5169ZM19.3497 23.1927L18.655 22.4734L17.426 23.6604L19.0628 24.1506L19.3497 23.1927ZM23.9701 30.796H22.9701V31.8338L24.0072 31.7953L23.9701 30.796ZM29.6757 29.5887L30.1276 30.4808L30.1315 30.4788L29.6757 29.5887ZM29.9599 29.4432V28.4432H29.7187L29.5041 28.5531L29.9599 29.4432ZM29.9901 29.4432V30.4432H30.9901V29.4432H29.9901ZM29.9901 24.9988L28.9901 24.9986V24.9988H29.9901ZM25.5042 10.5695L24.5043 10.5544L24.4958 11.1154L24.9702 11.415L25.5042 10.5695ZM27.9561 14.5109L26.9614 14.6135L27.0194 15.1753L27.5303 15.4157L27.9561 14.5109ZM29.7523 6.35284L29.7522 7.35284H29.7523V6.35284ZM27.9767 15.2083V14.2083H27.0033L26.9771 15.1814L27.9767 15.2083ZM26.3597 18.8841L25.665 18.1647L24.4357 19.3519L26.0728 19.842L26.3597 18.8841ZM30.98 26.4875H29.98V27.5252L31.017 27.4868L30.98 26.4875ZM36.6856 25.2801L37.14 26.1709L37.1408 26.1705L36.6856 25.2801ZM36.9694 25.135V24.135H36.7287L36.5143 24.2446L36.9694 25.135ZM37 25.135V26.135H38V25.135H37ZM37 20.6901L36 20.69V20.6901H37ZM10.5097 18.5635L11.0458 19.4076L11.4297 19.1638L11.4982 18.7141L10.5097 18.5635ZM12.4877 15.1836L13.104 15.9711L13.4615 15.6912L13.4862 15.2378L12.4877 15.1836ZM12.0669 23.1927L12.3536 24.1507L13.991 23.6607L12.7615 22.4733L12.0669 23.1927ZM10.4503 19.5368L11.4498 19.5056L11.4217 18.607L10.5252 18.5396L10.4503 19.5368ZM1 29.4432H0V29.5232L0.0127329 29.6023L1 29.4432ZM1.01115 29.5124L0.0238807 29.6714L0.122149 30.2813L0.711529 30.4664L1.01115 29.5124ZM1.31523 29.6079L1.61561 28.6541L1.61485 28.6538L1.31523 29.6079ZM7.44597 30.768L7.38772 31.7663L8.44597 31.828V30.768H7.44597ZM7.44597 29.4263L6.44597 29.4262V29.4263H7.44597ZM11.8804 6.64738C11.8804 4.62641 13.5054 3 15.4954 3V1C12.3876 1 9.88042 3.5351 9.88042 6.64738H11.8804ZM15.4954 3C17.4851 3 19.1102 4.62642 19.1102 6.64738H21.1102C21.1102 3.53509 18.6028 1 15.4954 1V3ZM19.1102 6.64738C19.1102 8.66832 17.4851 10.2947 15.4954 10.2947V12.2947C18.6028 12.2947 21.1102 9.75969 21.1102 6.64738H19.1102ZM15.4954 10.2947C13.5054 10.2947 11.8804 8.66835 11.8804 6.64738H9.88042C9.88042 9.75965 12.3876 12.2948 15.4954 12.2947L15.4954 10.2947ZM18.7121 14.5066C18.7492 13.696 19.0259 12.9449 19.4739 12.3216L17.8498 11.1544C17.1847 12.0797 16.7697 13.202 16.7142 14.4153L18.7121 14.5066ZM18.8682 10.7595C18.4112 10.6632 17.9384 10.6119 17.4534 10.6119V12.6119C17.7968 12.6119 18.1314 12.6481 18.4555 12.7165L18.8682 10.7595ZM17.4534 10.6119H13.538V12.6119H17.4534V10.6119ZM13.538 10.6119C13.0547 10.6119 12.5829 10.6627 12.1283 10.7579L12.5382 12.7154C12.8607 12.6479 13.1952 12.6119 13.538 12.6119V10.6119ZM11.5201 12.3188C11.9975 12.9855 12.2809 13.7959 12.2855 14.6733L14.2855 14.6627C14.2786 13.3527 13.8535 12.1424 13.1464 11.1546L11.5201 12.3188ZM13.7701 15.5428C14.3462 15.2237 15.0061 15.0422 15.7088 15.0422V13.0422C14.6568 13.0422 13.6646 13.3149 12.801 13.7933L13.7701 15.5428ZM15.7088 15.0422C16.2793 15.0422 16.8205 15.1617 17.312 15.3769L18.1143 13.5449C17.3757 13.2214 16.5618 13.0422 15.7088 13.0422V15.0422ZM17.9603 15.7236C19.0514 16.4126 19.8127 17.576 19.9519 18.9221L21.9413 18.7164C21.7366 16.737 20.6181 15.0366 19.0283 14.0326L17.9603 15.7236ZM20.5207 19.7241C21.192 20.04 21.9437 20.2246 22.7427 20.2246V18.2246C22.2557 18.2246 21.7936 18.1127 21.3725 17.9145L20.5207 19.7241ZM22.7427 20.2246C25.65 20.2246 27.9944 17.8531 27.9944 14.9427H25.9944C25.9944 16.762 24.532 18.2246 22.7427 18.2246V20.2246ZM27.9944 14.9427C27.9944 12.0319 25.6499 9.66085 22.7427 9.66085V11.6608C24.5321 11.6608 25.9944 13.1232 25.9944 14.9427H27.9944ZM22.7427 9.66085C19.8608 9.66093 17.5379 11.991 17.4944 14.863L19.4942 14.8932C19.5214 13.0962 20.9711 11.6609 22.7428 11.6608L22.7427 9.66085ZM15.7088 24.6456C18.6157 24.6456 20.9602 22.2734 20.9602 19.3638H18.9602C18.9602 21.1825 17.4976 22.6456 15.7088 22.6456V24.6456ZM20.9602 19.3638C20.9602 16.4537 18.6157 14.0819 15.7088 14.0819V16.0819C17.4976 16.0819 18.9602 17.5447 18.9602 19.3638H20.9602ZM15.7088 14.0819C12.8019 14.0819 10.4563 16.4533 10.4563 19.3638H12.4563C12.4563 17.545 13.9194 16.0819 15.7088 16.0819V14.0819ZM10.4563 19.3638C10.4564 22.2737 12.8018 24.6456 15.7088 24.6456V22.6456C13.9195 22.6456 12.4564 21.1822 12.4563 19.3637L10.4563 19.3638ZM17.5123 22.937H13.9049V24.937H17.5123V22.937ZM13.9049 22.937C10.3443 22.937 7.46068 25.8511 7.46068 29.4201H9.46068C9.46068 26.9423 11.4622 24.937 13.9049 24.937V22.937ZM7.46068 29.4201V33.8637H9.46068V29.4201H7.46068ZM7.47403 34.0265L7.48551 34.0961L9.45883 33.7704L9.44734 33.7009L7.47403 34.0265ZM8.17334 34.8876L8.47702 34.9827L9.07467 33.074L8.77099 32.9789L8.17334 34.8876ZM8.4758 34.9823C11.4395 35.9145 14.0296 36.2308 16.178 36.2308V34.2308C14.2291 34.2308 11.8416 33.9443 9.07589 33.0744L8.4758 34.9823ZM16.178 36.2308C20.3715 36.2308 22.8478 35.0267 23.0986 34.8976L22.1837 33.1192C22.1837 33.1192 22.183 33.1195 22.1817 33.1202C22.1803 33.1209 22.1784 33.1218 22.1759 33.1231C22.1709 33.1255 22.1638 33.1291 22.1545 33.1335C22.1359 33.1425 22.1091 33.1552 22.074 33.1711C22.0039 33.2028 21.9014 33.2471 21.7675 33.2998C21.4996 33.4052 21.1064 33.5438 20.5955 33.6817C19.5741 33.9575 18.0818 34.2308 16.178 34.2308V36.2308ZM23.0952 34.8994L23.3793 34.7546L22.4712 32.9726L22.1871 33.1174L23.0952 34.8994ZM22.9253 34.8636H22.9554V32.8636H22.9253V34.8636ZM23.9554 33.8636V29.42H21.9554V33.8636H23.9554ZM23.9554 29.42C23.9555 25.8514 21.0735 22.937 17.5123 22.937V24.937C19.9551 24.937 21.9555 26.942 21.9554 29.42L23.9554 29.42ZM24.5472 18.5169H20.9669V20.5169H24.5472V18.5169ZM19.9672 19.4899C19.9357 20.6619 19.4401 21.7151 18.655 22.4734L20.0444 23.912C21.1931 22.8025 21.9203 21.2573 21.9665 19.5438L19.9672 19.4899ZM19.0628 24.1506C21.3169 24.8257 22.9701 26.9346 22.9701 29.4268H24.9701C24.9701 26.0323 22.719 23.1578 19.6366 22.2347L19.0628 24.1506ZM22.9701 29.4268V30.796H24.9701V29.4268H22.9701ZM24.0072 31.7953C27.7189 31.6577 29.8977 30.5973 30.1276 30.4808L29.2238 28.6967C29.1854 28.7161 27.29 29.6722 23.9331 29.7967L24.0072 31.7953ZM30.1315 30.4788L30.4157 30.3333L29.5041 28.5531L29.2199 28.6987L30.1315 30.4788ZM29.9599 30.4432H29.9901V28.4432H29.9599V30.4432ZM30.9901 29.4432V24.9988H28.9901V29.4432H30.9901ZM30.9901 24.9989C30.9905 21.4306 28.107 18.5169 24.5472 18.5169V20.5169C26.9892 20.5169 28.9904 22.5219 28.9901 24.9986L30.9901 24.9989ZM24.9702 11.415C26.0614 12.1042 26.8226 13.2675 26.9614 14.6135L28.9509 14.4083C28.7467 12.4287 27.6281 10.7282 26.0382 9.72407L24.9702 11.415ZM27.5303 15.4157C28.2018 15.7318 28.9535 15.916 29.7523 15.916V13.916C29.265 13.916 28.8029 13.8042 28.3819 13.6061L27.5303 15.4157ZM29.7523 15.916C32.6598 15.916 35.0043 13.5449 35.0043 10.6347H33.0043C33.0043 12.4535 31.5422 13.916 29.7523 13.916V15.916ZM35.0043 10.6347C35.0043 7.72377 32.6598 5.35284 29.7523 5.35284V7.35284C31.5421 7.35284 33.0043 8.81515 33.0043 10.6347H35.0043ZM29.7524 5.35284C26.8705 5.35251 24.5479 7.68317 24.5043 10.5544L26.5041 10.5847C26.5314 8.78811 27.9811 7.35264 29.7522 7.35284L29.7524 5.35284ZM31.5563 14.2083H27.9767V16.2083H31.5563V14.2083ZM26.9771 15.1814C26.9455 16.3534 26.45 17.4066 25.665 18.1647L27.0543 19.6034C28.2031 18.4939 28.9302 16.9488 28.9764 15.2353L26.9771 15.1814ZM26.0728 19.842C28.3267 20.5168 29.98 22.6259 29.98 25.1183H31.98C31.98 21.7238 29.7289 18.8489 26.6465 17.9261L26.0728 19.842ZM29.98 25.1183V26.4875H31.98V25.1183H29.98ZM31.017 27.4868C34.7277 27.3495 36.9075 26.2895 37.14 26.1709L36.2313 24.3893C36.1954 24.4076 34.3003 25.3639 30.943 25.4882L31.017 27.4868ZM37.1408 26.1705L37.4246 26.0255L36.5143 24.2446L36.2305 24.3897L37.1408 26.1705ZM36.9694 26.135H37V24.135H36.9694V26.135ZM38 25.135V20.6901H36V25.135H38ZM38 20.6902C38.0005 17.1221 35.1168 14.2083 31.5563 14.2083V16.2083C33.9993 16.2083 36.0003 18.2136 36 20.69L38 20.6902ZM8.24854 20.2247C9.28009 20.2247 10.2381 19.9205 11.0458 19.4076L9.97356 17.7193C9.46938 18.0395 8.88057 18.2247 8.24854 18.2247V20.2247ZM11.4982 18.7141C11.6673 17.6044 12.2582 16.6331 13.104 15.9711L11.8713 14.3961C10.6358 15.3631 9.76915 16.7847 9.52107 18.4128L11.4982 18.7141ZM13.4862 15.2378C13.4878 15.2076 13.4993 15.0595 13.4993 14.9427H11.4993C11.4993 14.9883 11.4962 14.9989 11.4891 15.1293L13.4862 15.2378ZM13.4993 14.9427C13.4993 12.032 11.1544 9.66092 8.24854 9.66092V11.6609C10.0365 11.6609 11.4993 13.1232 11.4993 14.9427H13.4993ZM8.24854 9.66092C5.34076 9.66092 2.99654 12.0319 2.99654 14.9427H4.99654C4.99654 13.1232 6.45854 11.6609 8.24854 11.6609V9.66092ZM2.99654 14.9427C2.99654 17.8536 5.34065 20.2247 8.24854 20.2247V18.2247C6.45851 18.2247 4.99654 16.7624 4.99654 14.9427H2.99654ZM12.7615 22.4733C11.9805 21.7191 11.4863 20.6715 11.4498 19.5056L9.45078 19.5681C9.50404 21.2708 10.2284 22.8074 11.3722 23.912L12.7615 22.4733ZM10.5252 18.5396C10.3994 18.5302 10.2304 18.5169 10.0512 18.5169V20.5169C10.1426 20.5169 10.2364 20.5236 10.3754 20.534L10.5252 18.5396ZM10.0512 18.5169H6.44421V20.5169H10.0512V18.5169ZM6.44421 18.5169C2.88331 18.5169 0 21.4306 0 24.9992H2C2 22.5219 4.00103 20.5169 6.44421 20.5169V18.5169ZM0 24.9992V29.4432H2V24.9992H0ZM0.0127329 29.6023L0.0238807 29.6714L1.99841 29.3533L1.98727 29.2841L0.0127329 29.6023ZM0.711529 30.4664L1.01561 30.5619L1.61485 28.6538L1.31077 28.5583L0.711529 30.4664ZM1.01484 30.5617C3.39265 31.3105 5.52547 31.6576 7.38772 31.7663L7.50421 29.7697C5.80307 29.6704 3.8331 29.3524 1.61561 28.6541L1.01484 30.5617ZM8.44597 30.768V29.4263H6.44597V30.768H8.44597ZM8.44597 29.4265C8.44625 26.9345 10.0992 24.8253 12.3536 24.1507L11.7802 22.2346C8.69687 23.1573 6.44635 26.0324 6.44597 29.4262L8.44597 29.4265Z" fill="url(#paint0_linear)" mask="url(#path-1-inside-1)"/>
<defs>
<linearGradient id="paint0_linear" x1="1" y1="18.1407" x2="39.5714" y2="18.1407" gradientUnits="userSpaceOnUse">
<stop stop-color="#194163"/>
<stop offset="1" stop-color="#03CFA7"/>
</linearGradient>
</defs>
</svg>
