<svg width="30" height="30" viewBox="0 0 37 37" fill="none" xmlns="http://www.w3.org/2000/svg">
<path d="M10.8804 6.64738C10.8804 4.08076 12.9465 2 15.4954 2C18.0439 2 20.1102 4.08076 20.1102 6.64738C20.1102 9.214 18.0439 11.2947 15.4954 11.2947C12.9465 11.2948 10.8804 9.214 10.8804 6.64738ZM17.7131 14.4609C17.7594 13.449 18.1053 12.5123 18.6618 11.738C18.2713 11.6556 17.8676 11.6119 17.4534 11.6119H13.538C13.125 11.6119 12.7218 11.6553 12.3333 11.7367C12.9255 12.5639 13.2797 13.5743 13.2855 14.668C14.0054 14.2693 14.8314 14.0422 15.7088 14.0422C16.4205 14.0422 17.0981 14.1916 17.7131 14.4609ZM18.4943 14.8781C19.8347 15.7246 20.7747 17.1565 20.9466 18.8193C21.4928 19.0763 22.0997 19.2246 22.7427 19.2246C25.091 19.2246 26.9944 17.3076 26.9944 14.9427C26.9944 12.5775 25.091 10.6608 22.7427 10.6608C20.4159 10.6609 18.5296 12.5436 18.4943 14.8781ZM15.7088 23.6456C18.0566 23.6456 19.9602 21.728 19.9602 19.3638C19.9602 16.9992 18.0566 15.0819 15.7088 15.0819C13.3607 15.0819 11.4563 16.9992 11.4563 19.3638C11.4564 21.728 13.3607 23.6456 15.7088 23.6456ZM17.5123 23.937H13.9049C10.9033 23.937 8.46068 26.3967 8.46068 29.4201V33.8637L8.47217 33.9333L8.77584 34.0283C11.6406 34.9294 14.1293 35.2308 16.178 35.2308C20.1785 35.2308 22.4982 34.0819 22.6411 34.0084L22.9253 33.8636H22.9554V29.42C22.9555 26.3967 20.5143 23.937 17.5123 23.937ZM24.5472 19.5169H20.9669C20.928 20.9596 20.3166 22.2588 19.3497 23.1927C22.0179 23.9917 23.9701 26.4834 23.9701 29.4268V30.796C27.5044 30.665 29.5415 29.6567 29.6757 29.5887L29.9599 29.4432H29.9901V24.9988C29.9905 21.9762 27.5481 19.5169 24.5472 19.5169ZM25.5042 10.5695C26.8447 11.4162 27.7846 12.8481 27.9561 14.5109C28.5024 14.768 29.1093 14.916 29.7523 14.916C32.101 14.916 34.0043 12.9992 34.0043 10.6347C34.0043 8.26946 32.101 6.35284 29.7523 6.35284C27.4258 6.35257 25.5396 8.23564 25.5042 10.5695ZM31.5563 15.2083H27.9767C27.9379 16.6511 27.3266 17.9503 26.3596 18.8841C29.0278 19.6828 30.98 22.1749 30.98 25.1183V26.4875C34.514 26.3567 36.5515 25.3486 36.6856 25.2801L36.9694 25.135H37V20.6901C37.0004 17.6678 34.558 15.2083 31.5563 15.2083ZM8.24854 19.2247C9.08033 19.2247 9.85375 18.98 10.5097 18.5635C10.7182 17.1945 11.447 15.9981 12.4877 15.1836C12.492 15.1032 12.4993 15.0239 12.4993 14.9427C12.4993 12.5776 10.5954 10.6609 8.24854 10.6609C5.89965 10.6609 3.99654 12.5775 3.99654 14.9427C3.99654 17.308 5.89958 19.2247 8.24854 19.2247ZM12.0669 23.1927C11.1045 22.2633 10.4952 20.9712 10.4503 19.5368C10.3179 19.5269 10.1865 19.5169 10.0512 19.5169H6.44421C3.44217 19.5169 1 21.9762 1 24.9992V29.4432L1.01115 29.5124L1.31523 29.6079C3.61288 30.3315 5.66427 30.664 7.44597 30.768V29.4263C7.4463 26.4834 9.39804 23.9913 12.0669 23.1927Z" fill="url(#paint0_linear)"/>
<defs>
<linearGradient id="paint0_linear" x1="37.4424" y1="21.4606" x2="0.999437" y2="21.3302" gradientUnits="userSpaceOnUse">
<stop stop-color="#03CFA7"/>
<stop offset="1" stop-color="#194163"/>
<stop offset="1" stop-color="#194163"/>
</linearGradient>
</defs>
</svg>
