<svg width="37" height="37" viewBox="0 0 37 37" fill="none" xmlns="http://www.w3.org/2000/svg">
<path d="M18.9109 1.66501L18.9109 1.66502L35.0942 17.178C35.3601 17.4456 35.5 17.7907 35.5 18.135C35.5 18.8637 34.9057 19.458 34.1771 19.458H31.625H31.125V19.958V33.8125C31.125 34.7438 30.3688 35.5 29.4375 35.5H23.2396C22.912 35.5 22.6458 35.2339 22.6458 34.9062V25.4269C22.6458 24.9509 22.2572 24.5623 21.7812 24.5623H15.2188C14.74 24.5623 14.3542 24.9522 14.3542 25.4269V34.9062C14.3542 35.2339 14.088 35.5 13.7604 35.5H7.5625C6.63115 35.5 5.875 34.7438 5.875 33.8125V19.958V19.458H5.375H2.82292C2.09428 19.458 1.5 18.8637 1.5 18.135C1.5 17.7876 1.64212 17.4435 1.88971 17.1941L18.0891 1.66501L17.7442 1.30519L18.0891 1.66501C18.3186 1.445 18.6814 1.445 18.9109 1.66501Z" stroke="url(#paint0_linear)"/>
<defs>
<linearGradient id="paint0_linear" x1="1" y1="18" x2="38.5" y2="18" gradientUnits="userSpaceOnUse">
<stop stop-color="#194163"/>
<stop offset="1" stop-color="#03CFA7"/>
</linearGradient>
</defs>
</svg>
