<svg width="37" height="37" viewBox="0 0 37 37" fill="none" xmlns="http://www.w3.org/2000/svg">
<path d="M35.4444 16.8211L19.2569 1.30407C18.834 0.898644 18.166 0.898644 17.7431 1.30407L1.53958 16.8371C1.19688 17.1798 1 17.6523 1 18.135C1 19.1399 1.81813 19.958 2.82292 19.958H5.375V33.8125C5.375 35.02 6.355 36 7.5625 36H13.7604C14.3642 36 14.8542 35.51 14.8542 34.9062V25.4269C14.8542 25.2271 15.0175 25.0623 15.2188 25.0623H21.7812C21.981 25.0623 22.1458 25.2271 22.1458 25.4269V34.9062C22.1458 35.51 22.6358 36 23.2396 36H29.4375C30.645 36 31.625 35.02 31.625 33.8125V19.958H34.1771C35.1819 19.958 36 19.1399 36 18.135C36 17.6523 35.8031 17.1798 35.4444 16.8211Z" fill="url(#paint0_linear)"/>
<defs>
<linearGradient id="paint0_linear" x1="36.4301" y1="21.4967" x2="0.999386" y2="21.3797" gradientUnits="userSpaceOnUse">
<stop stop-color="#03CFA7"/>
<stop offset="1" stop-color="#194163"/>
<stop offset="1" stop-color="#194163"/>
</linearGradient>
</defs>
</svg>
