<svg width="30" height="30" viewBox="0 0 37 37" fill="none" xmlns="http://www.w3.org/2000/svg">
<mask id="path-1-inside-1" fill="white">
<path fill-rule="evenodd" clip-rule="evenodd" d="M24.3337 8.375V6.91667C24.3337 5.30812 23.0255 4 21.417 4H15.5837C13.9751 4 12.667 5.30812 12.667 6.91667V8.375H5.01042C2.79375 8.375 1 10.1687 1 12.3854V15.725L18.15 21.4417C18.2667 21.4854 18.3833 21.5 18.5 21.5C18.6167 21.5 18.7333 21.4854 18.85 21.4417L36 15.725V12.3854C36 10.1687 34.2062 8.375 31.9896 8.375H24.3337ZM15.5837 8.375H21.417V6.91667H15.5837V8.375ZM19.5354 23.5125C19.2729 23.6146 18.8937 23.6875 18.5 23.6875C18.1062 23.6875 17.7271 23.6146 17.3771 23.4833L1 18.0292V29.1563C1 31.3729 2.79375 33.1667 5.01042 33.1667H31.9896C34.2062 33.1667 36 31.3729 36 29.1563V18.0292L19.5354 23.5125Z"/>
</mask>
<path d="M24.3337 8.375H23.3337V9.375H24.3337V8.375ZM12.667 8.375V9.375H13.667V8.375H12.667ZM1 15.725H0V16.4458L0.683772 16.6737L1 15.725ZM18.15 21.4417L18.5011 20.5053L18.4838 20.4988L18.4662 20.493L18.15 21.4417ZM18.85 21.4417L18.5338 20.493L18.5162 20.4988L18.4989 20.5053L18.85 21.4417ZM36 15.725L36.3162 16.6737L37 16.4458V15.725H36ZM15.5837 8.375H14.5837V9.375H15.5837V8.375ZM21.417 8.375V9.375H22.417V8.375H21.417ZM21.417 6.91667H22.417V5.91667H21.417V6.91667ZM15.5837 6.91667V5.91667H14.5837V6.91667H15.5837ZM19.5354 23.5125L19.2194 22.5637L19.196 22.5715L19.173 22.5805L19.5354 23.5125ZM17.3771 23.4833L17.7282 22.547L17.7107 22.5405L17.6931 22.5346L17.3771 23.4833ZM1 18.0292L1.31597 17.0804L0 16.6421V18.0292H1ZM36 18.0292H37V16.6421L35.684 17.0804L36 18.0292ZM25.3337 8.375V6.91667H23.3337V8.375H25.3337ZM25.3337 6.91667C25.3337 4.75584 23.5778 3 21.417 3V5C22.4732 5 23.3337 5.86041 23.3337 6.91667H25.3337ZM21.417 3H15.5837V5H21.417V3ZM15.5837 3C13.4228 3 11.667 4.75584 11.667 6.91667H13.667C13.667 5.86041 14.5274 5 15.5837 5V3ZM11.667 6.91667V8.375H13.667V6.91667H11.667ZM5.01042 9.375H12.667V7.375H5.01042V9.375ZM2 12.3854C2 10.721 3.34603 9.375 5.01042 9.375V7.375C2.24146 7.375 0 9.61647 0 12.3854H2ZM2 15.725V12.3854H0V15.725H2ZM18.4662 20.493L1.31623 14.7763L0.683772 16.6737L17.8338 22.3903L18.4662 20.493ZM18.5 20.5C18.4831 20.5 18.4774 20.4989 18.4794 20.4992C18.4804 20.4994 18.4831 20.4999 18.4871 20.5009C18.4912 20.5019 18.496 20.5034 18.5011 20.5053L17.7989 22.378C18.0567 22.4747 18.2987 22.5 18.5 22.5V20.5ZM18.4989 20.5053C18.504 20.5034 18.5088 20.5019 18.5129 20.5009C18.5169 20.4999 18.5196 20.4994 18.5206 20.4992C18.5226 20.4989 18.5169 20.5 18.5 20.5V22.5C18.7013 22.5 18.9433 22.4747 19.2011 22.378L18.4989 20.5053ZM35.6838 14.7763L18.5338 20.493L19.1662 22.3903L36.3162 16.6737L35.6838 14.7763ZM35 12.3854V15.725H37V12.3854H35ZM31.9896 9.375C33.654 9.375 35 10.721 35 12.3854H37C37 9.61646 34.7585 7.375 31.9896 7.375V9.375ZM24.3337 9.375H31.9896V7.375H24.3337V9.375ZM15.5837 9.375H21.417V7.375H15.5837V9.375ZM20.417 6.91667V8.375H22.417V6.91667H20.417ZM15.5837 7.91667H21.417V5.91667H15.5837V7.91667ZM16.5837 8.375V6.91667H14.5837V8.375H16.5837ZM18.5 24.6875C19.001 24.6875 19.5052 24.5972 19.8979 24.4445L19.173 22.5805C19.0406 22.632 18.7865 22.6875 18.5 22.6875V24.6875ZM17.026 24.4197C17.4844 24.5916 17.9823 24.6875 18.5 24.6875V22.6875C18.2302 22.6875 17.9698 22.6376 17.7282 22.547L17.026 24.4197ZM0.684026 18.9779L17.0611 24.4321L17.6931 22.5346L1.31597 17.0804L0.684026 18.9779ZM2 29.1563V18.0292H0V29.1563H2ZM5.01042 32.1667C3.34603 32.1667 2 30.8206 2 29.1563H0C0 31.9252 2.24146 34.1667 5.01042 34.1667V32.1667ZM31.9896 32.1667H5.01042V34.1667H31.9896V32.1667ZM35 29.1563C35 30.8206 33.654 32.1667 31.9896 32.1667V34.1667C34.7585 34.1667 37 31.9252 37 29.1563H35ZM35 18.0292V29.1563H37V18.0292H35ZM19.8514 24.4613L36.316 18.9779L35.684 17.0804L19.2194 22.5637L19.8514 24.4613Z" fill="url(#paint0_linear)" mask="url(#path-1-inside-1)"/>
<defs>
<linearGradient id="paint0_linear" x1="1" y1="18.1667" x2="38.5" y2="18.1667" gradientUnits="userSpaceOnUse">
<stop stop-color="#194163"/>
<stop offset="1" stop-color="#03CFA7"/>
</linearGradient>
</defs>
</svg>
