<svg width="30" height="30" viewBox="0 0 37 37" fill="none" xmlns="http://www.w3.org/2000/svg">
<path fill-rule="evenodd" clip-rule="evenodd" d="M24.3337 8.375V6.91667C24.3337 5.30812 23.0255 4 21.417 4H15.5837C13.9751 4 12.667 5.30812 12.667 6.91667V8.375H5.01042C2.79375 8.375 1 10.1687 1 12.3854V15.725L18.15 21.4417C18.2667 21.4854 18.3833 21.5 18.5 21.5C18.6167 21.5 18.7333 21.4854 18.85 21.4417L36 15.725V12.3854C36 10.1687 34.2062 8.375 31.9896 8.375H24.3337ZM15.5837 8.375H21.417V6.91667H15.5837V8.375ZM19.5354 23.5125C19.2729 23.6146 18.8937 23.6875 18.5 23.6875C18.1062 23.6875 17.7271 23.6146 17.3771 23.4833L1 18.0292V29.1563C1 31.3729 2.79375 33.1667 5.01042 33.1667H31.9896C34.2062 33.1667 36 31.3729 36 29.1563V18.0292L19.5354 23.5125Z" fill="url(#paint0_linear)"/>
<defs>
<linearGradient id="paint0_linear" x1="36.4301" y1="21.0806" x2="0.999556" y2="20.9402" gradientUnits="userSpaceOnUse">
<stop stop-color="#03CFA7"/>
<stop offset="1" stop-color="#194163"/>
<stop offset="1" stop-color="#194163"/>
</linearGradient>
</defs>
</svg>
