<svg width="37" height="37" viewBox="0 0 37 37" fill="none" xmlns="http://www.w3.org/2000/svg">
<mask id="path-1-inside-1" fill="white">
<path fill-rule="evenodd" clip-rule="evenodd" d="M32.924 0.999983C33.7457 0.999983 34.5182 1.31988 35.0992 1.90094C35.6803 2.48199 36.0002 3.25451 36.0002 4.07615C36.0002 4.8978 35.68 5.67032 35.0992 6.25137L32.4407 8.90991L28.0902 4.55948L30.7488 1.90094C31.3298 1.31988 32.1024 0.999983 32.924 0.999983ZM29.5405 11.8101L30.9905 10.3602L26.64 6.00972L25.1901 7.45968L23.9818 6.25138C23.5812 5.85084 22.9321 5.85084 22.5315 6.25138C22.131 6.65166 22.131 7.30107 22.5315 7.70135L22.6848 7.85462L9.56835 18.2573C9.32322 18.4519 9.18009 18.7478 9.18009 19.0608V26.7947C9.18009 27.3611 9.63911 27.8201 10.2055 27.8201H17.9394C18.2524 27.8201 18.5483 27.6772 18.7429 27.4318L29.1456 14.3154L29.2988 14.4687C29.4988 14.6689 29.7613 14.7691 30.0238 14.7691C30.286 14.7691 30.5485 14.6689 30.7488 14.4687C31.1491 14.0684 31.1491 13.419 30.7488 13.0187L29.5405 11.8101ZM19.6313 18.8191C19.4311 19.0194 19.1686 19.1195 18.9063 19.1195C18.6439 19.1195 18.3814 19.0194 18.1814 18.8191C17.7808 18.4185 17.7808 17.7694 18.1814 17.3689L25.1901 10.3599L26.6403 11.8101L19.6313 18.8191ZM17.9392 29.8709H10.2053C8.50912 29.8709 7.12911 28.4909 7.12911 26.7947V19.0608C7.12911 18.1163 7.55342 17.2378 8.29362 16.6506L19.7043 7.60069C13.6662 5.82521 7.57825 6.44231 1.5669 9.44799C1.2195 9.62183 1 9.97671 1 10.3652V20.966C1 28.0754 5.8172 34.2451 12.7143 35.9693C12.7957 35.9899 12.8793 36 12.9629 36C13.0465 36 13.1298 35.9899 13.2115 35.9693C19.3994 34.4224 23.9119 29.2976 24.7752 23.1263L20.3494 28.7064C19.7625 29.4463 18.884 29.8709 17.9392 29.8709Z"/>
</mask>
<path d="M35.0992 1.90094L35.8063 1.19383L35.8063 1.19383L35.0992 1.90094ZM35.0992 6.25137L35.8063 6.95848L35.8065 6.95832L35.0992 6.25137ZM32.4407 8.90991L31.7336 9.61702L32.4407 10.3241L33.1478 9.61702L32.4407 8.90991ZM28.0902 4.55948L27.3831 3.85237L26.676 4.55948L27.3831 5.26658L28.0902 4.55948ZM30.7488 1.90094L30.0417 1.19383L30.0417 1.19383L30.7488 1.90094ZM30.9905 10.3602L31.6976 11.0673L32.4047 10.3602L31.6976 9.65304L30.9905 10.3602ZM29.5405 11.8101L28.8334 11.103L28.1264 11.81L28.8333 12.5171L29.5405 11.8101ZM26.64 6.00972L27.3471 5.30261L26.64 4.5955L25.9329 5.30261L26.64 6.00972ZM25.1901 7.45968L24.483 8.16679L25.1901 8.8739L25.8972 8.16679L25.1901 7.45968ZM22.5315 6.25138L23.2384 6.95872L23.2386 6.95849L22.5315 6.25138ZM22.5315 7.70135L23.2386 6.99424L23.2384 6.994L22.5315 7.70135ZM22.6848 7.85462L23.3062 8.63812L24.1853 7.9409L23.3919 7.14751L22.6848 7.85462ZM9.56835 18.2573L8.94696 17.4738L8.94647 17.4742L9.56835 18.2573ZM18.7429 27.4318L19.5264 28.0533L19.5264 28.0532L18.7429 27.4318ZM29.1456 14.3154L29.8527 13.6083L29.0593 12.8149L28.3621 13.694L29.1456 14.3154ZM29.2988 14.4687L30.0064 13.762L30.006 13.7615L29.2988 14.4687ZM30.7488 13.0187L30.0416 13.7257L30.0417 13.7258L30.7488 13.0187ZM18.1814 18.8191L18.8889 18.1125L18.8885 18.112L18.1814 18.8191ZM18.1814 17.3689L18.8885 18.076L18.8885 18.0759L18.1814 17.3689ZM25.1901 10.3599L25.8972 9.65278L25.1901 8.94566L24.483 9.65279L25.1901 10.3599ZM26.6403 11.8101L27.3474 12.5172L28.0545 11.8101L27.3474 11.103L26.6403 11.8101ZM8.29362 16.6506L7.67223 15.8671L7.67214 15.8671L8.29362 16.6506ZM19.7043 7.60069L20.3257 8.38418L21.8371 7.18549L19.9864 6.6413L19.7043 7.60069ZM1.5669 9.44799L1.11969 8.55356L1.11941 8.5537L1.5669 9.44799ZM12.7143 35.9693L12.9591 34.9997L12.9568 34.9991L12.7143 35.9693ZM13.2115 35.9693L12.969 34.9991L12.9675 34.9995L13.2115 35.9693ZM24.7752 23.1263L25.7655 23.2648L26.2745 19.6267L23.9917 22.5049L24.7752 23.1263ZM20.3494 28.7064L21.1329 29.3278L21.1329 29.3278L20.3494 28.7064ZM35.8063 1.19383C35.0377 0.4252 34.0108 -1.72064e-05 32.924 -1.72064e-05V1.99998C33.4805 1.99998 33.9986 2.21457 34.3921 2.60804L35.8063 1.19383ZM37.0002 4.07615C37.0002 2.98935 36.575 1.96246 35.8063 1.19383L34.3921 2.60804C34.7856 3.00152 35.0002 3.51967 35.0002 4.07615H37.0002ZM35.8065 6.95832C36.5746 6.18989 37.0002 5.16316 37.0002 4.07615H35.0002C35.0002 4.63244 34.7855 5.15074 34.392 5.54443L35.8065 6.95832ZM33.1478 9.61702L35.8063 6.95848L34.3921 5.54426L31.7336 8.2028L33.1478 9.61702ZM27.3831 5.26658L31.7336 9.61702L33.1478 8.2028L28.7974 3.85237L27.3831 5.26658ZM30.0417 1.19383L27.3831 3.85237L28.7974 5.26658L31.4559 2.60804L30.0417 1.19383ZM32.924 -1.72064e-05C31.8372 -1.72064e-05 30.8103 0.425201 30.0417 1.19383L31.4559 2.60804C31.8494 2.21457 32.3675 1.99998 32.924 1.99998V-1.72064e-05ZM30.2834 9.65304L28.8334 11.103L30.2476 12.5172L31.6976 11.0673L30.2834 9.65304ZM25.9329 6.71682L30.2834 11.0673L31.6976 9.65304L27.3471 5.30261L25.9329 6.71682ZM25.8972 8.16679L27.3471 6.71682L25.9329 5.30261L24.483 6.75258L25.8972 8.16679ZM23.2747 6.95849L24.483 8.16679L25.8972 6.75258L24.6889 5.54427L23.2747 6.95849ZM23.2386 6.95849C23.2425 6.95464 23.245 6.95342 23.2466 6.95275C23.249 6.95181 23.2524 6.95097 23.2566 6.95097C23.2609 6.95097 23.2643 6.95181 23.2667 6.95275C23.2683 6.95342 23.2708 6.95464 23.2747 6.95849L24.6889 5.54427C23.8978 4.7532 22.6155 4.7532 21.8244 5.54427L23.2386 6.95849ZM23.2384 6.994C23.2347 6.99029 23.2335 6.98791 23.2329 6.98631C23.232 6.98403 23.2311 6.98061 23.2311 6.97636C23.2311 6.97211 23.232 6.96869 23.2329 6.96642C23.2335 6.96481 23.2347 6.96243 23.2384 6.95872L21.8247 5.54404C21.0333 6.33489 21.0333 7.61783 21.8247 8.40869L23.2384 6.994ZM23.3919 7.14751L23.2386 6.99424L21.8244 8.40845L21.9777 8.56173L23.3919 7.14751ZM10.1897 19.0408L23.3062 8.63812L22.0634 7.07112L8.94696 17.4738L10.1897 19.0408ZM10.1801 19.0608C10.1801 19.0535 10.1835 19.0457 10.1902 19.0404L8.94647 17.4742C8.46294 17.8581 8.18009 18.4421 8.18009 19.0608H10.1801ZM10.1801 26.7947V19.0608H8.18009V26.7947H10.1801ZM10.2055 26.8201C10.2001 26.8201 10.1975 26.8192 10.1958 26.8185C10.1935 26.8175 10.1905 26.8157 10.1875 26.8127C10.1845 26.8097 10.1827 26.8067 10.1817 26.8043C10.181 26.8027 10.1801 26.8001 10.1801 26.7947H8.18009C8.18009 27.9134 9.08683 28.8201 10.2055 28.8201V26.8201ZM17.9394 26.8201H10.2055V28.8201H17.9394V26.8201ZM17.9595 26.8104C17.9546 26.8166 17.9472 26.8201 17.9394 26.8201V28.8201C18.5576 28.8201 19.142 28.5379 19.5264 28.0533L17.9595 26.8104ZM28.3621 13.694L17.9594 26.8104L19.5264 28.0532L29.9291 14.9368L28.3621 13.694ZM30.006 13.7615L29.8527 13.6083L28.4385 15.0225L28.5917 15.1758L30.006 13.7615ZM30.0238 13.7691C30.0195 13.7691 30.016 13.7682 30.0138 13.7673C30.0127 13.7669 30.0118 13.7664 30.0108 13.7657C30.0099 13.7652 30.0085 13.7641 30.0064 13.762L28.5913 15.1753C28.9866 15.5712 29.5071 15.7691 30.0238 15.7691V13.7691ZM30.0417 13.7615C30.0395 13.7637 30.0379 13.7649 30.0369 13.7656C30.0358 13.7663 30.0348 13.7668 30.0337 13.7673C30.0313 13.7683 30.0279 13.7691 30.0238 13.7691V15.7691C30.5406 15.7691 31.0607 15.571 31.4559 15.1758L30.0417 13.7615ZM30.0417 13.7258C30.0454 13.7295 30.0465 13.7319 30.0472 13.7335C30.0482 13.7358 30.049 13.7393 30.049 13.7437C30.049 13.748 30.0482 13.7515 30.0472 13.7538C30.0465 13.7555 30.0454 13.7579 30.0417 13.7615L31.4559 15.1758C32.2467 14.385 32.2467 13.1024 31.4559 12.3116L30.0417 13.7258ZM28.8333 12.5171L30.0416 13.7257L31.456 12.3117L30.2477 11.1031L28.8333 12.5171ZM18.9063 20.1195C19.4231 20.1195 19.9432 19.9214 20.3384 19.5262L18.9242 18.112C18.922 18.1142 18.9204 18.1154 18.9194 18.116C18.9184 18.1167 18.9173 18.1173 18.9162 18.1177C18.9138 18.1187 18.9104 18.1195 18.9063 18.1195V20.1195ZM17.4738 19.5257C17.8691 19.9216 18.3896 20.1195 18.9063 20.1195V18.1195C18.902 18.1195 18.8986 18.1186 18.8963 18.1177C18.8952 18.1173 18.8943 18.1168 18.8934 18.1162C18.8925 18.1156 18.891 18.1145 18.8889 18.1125L17.4738 19.5257ZM17.4743 16.6617C16.6832 17.4528 16.6832 18.7351 17.4743 19.5262L18.8885 18.112C18.8846 18.1081 18.8834 18.1056 18.8827 18.104C18.8818 18.1017 18.881 18.0982 18.881 18.094C18.881 18.0897 18.8818 18.0863 18.8827 18.084C18.8834 18.0823 18.8846 18.0798 18.8885 18.076L17.4743 16.6617ZM24.483 9.65279L17.4742 16.6618L18.8885 18.0759L25.8972 11.067L24.483 9.65279ZM27.3474 11.103L25.8972 9.65278L24.483 11.067L25.9332 12.5172L27.3474 11.103ZM20.3384 19.5262L27.3474 12.5172L25.9332 11.103L18.9242 18.112L20.3384 19.5262ZM10.2053 30.8709H17.9392V28.8709H10.2053V30.8709ZM6.12911 26.7947C6.12911 29.0432 7.95683 30.8709 10.2053 30.8709V28.8709C9.0614 28.8709 8.12911 27.9386 8.12911 26.7947H6.12911ZM6.12911 19.0608V26.7947H8.12911V19.0608H6.12911ZM7.67214 15.8671C6.69278 16.6441 6.12911 17.8111 6.12911 19.0608H8.12911C8.12911 18.4215 8.41407 17.8315 8.91511 17.434L7.67214 15.8671ZM19.0829 6.81719L7.67223 15.8671L8.91502 17.4341L20.3257 8.38418L19.0829 6.81719ZM2.01412 10.3424C7.81566 7.44165 13.6437 6.86091 19.4222 8.56007L19.9864 6.6413C13.6888 4.78951 7.34085 5.44298 1.11969 8.55356L2.01412 10.3424ZM2 10.3652C2 10.3558 2.00526 10.3469 2.01439 10.3423L1.11941 8.5537C0.433738 8.8968 0 9.59764 0 10.3652H2ZM2 20.966V10.3652H0V20.966H2ZM12.9568 34.9991C6.5049 33.3862 2 27.6165 2 20.966H0C0 28.5343 5.1295 35.1039 12.4718 36.9394L12.9568 34.9991ZM12.9629 35C12.9601 35 12.9588 34.9997 12.9591 34.9997L12.4695 36.9389C12.6326 36.9801 12.7985 37 12.9629 37V35ZM12.9675 34.9995C12.9666 34.9998 12.9653 35 12.9629 35V37C13.1277 37 13.293 36.98 13.4555 36.9391L12.9675 34.9995ZM23.7848 22.9877C22.9774 28.7593 18.7574 33.5521 12.969 34.9991L13.454 36.9394C20.0413 35.2927 24.8463 29.8358 25.7655 23.2648L23.7848 22.9877ZM21.1329 29.3278L25.5587 23.7477L23.9917 22.5049L19.566 28.085L21.1329 29.3278ZM17.9392 30.8709C19.1892 30.8709 20.3563 30.3069 21.1329 29.3278L19.566 28.0849C19.1687 28.5857 18.5787 28.8709 17.9392 28.8709V30.8709Z" fill="url(#paint0_linear)" mask="url(#path-1-inside-1)"/>
<defs>
<linearGradient id="paint0_linear" x1="1" y1="18" x2="38.5002" y2="18" gradientUnits="userSpaceOnUse">
<stop stop-color="#194163"/>
<stop offset="1" stop-color="#03CFA7"/>
</linearGradient>
</defs>
</svg>
