<svg width="37" height="37" viewBox="0 0 37 37" fill="none" xmlns="http://www.w3.org/2000/svg">
<path fill-rule="evenodd" clip-rule="evenodd" d="M32.924 0.999983C33.7457 0.999983 34.5182 1.31988 35.0992 1.90094C35.6803 2.48199 36.0002 3.25451 36.0002 4.07615C36.0002 4.8978 35.68 5.67032 35.0992 6.25137L32.4407 8.90991L28.0902 4.55948L30.7488 1.90094C31.3298 1.31988 32.1024 0.999983 32.924 0.999983ZM29.5405 11.8101L30.9905 10.3602L26.64 6.00972L25.1901 7.45968L23.9818 6.25138C23.5812 5.85084 22.9321 5.85084 22.5315 6.25138C22.131 6.65166 22.131 7.30107 22.5315 7.70135L22.6848 7.85462L9.56835 18.2573C9.32322 18.4519 9.18009 18.7478 9.18009 19.0608V26.7947C9.18009 27.3611 9.63911 27.8201 10.2055 27.8201H17.9394C18.2524 27.8201 18.5483 27.6772 18.7429 27.4318L29.1456 14.3154L29.2988 14.4687C29.4988 14.6689 29.7613 14.7691 30.0238 14.7691C30.286 14.7691 30.5485 14.6689 30.7488 14.4687C31.1491 14.0684 31.1491 13.419 30.7488 13.0187L29.5405 11.8101ZM19.6313 18.8191C19.4311 19.0194 19.1686 19.1195 18.9063 19.1195C18.6439 19.1195 18.3814 19.0194 18.1814 18.8191C17.7808 18.4185 17.7808 17.7694 18.1814 17.3689L25.1901 10.3599L26.6403 11.8101L19.6313 18.8191ZM17.9392 29.8709H10.2053C8.50912 29.8709 7.12911 28.4909 7.12911 26.7947V19.0608C7.12911 18.1163 7.55342 17.2378 8.29362 16.6506L19.7043 7.60069C13.6662 5.82521 7.57825 6.44231 1.5669 9.44799C1.2195 9.62183 1 9.97671 1 10.3652V20.966C1 28.0754 5.8172 34.2451 12.7143 35.9693C12.7957 35.9899 12.8793 36 12.9629 36C13.0465 36 13.1298 35.9899 13.2115 35.9693C19.3994 34.4224 23.9119 29.2976 24.7752 23.1263L20.3494 28.7064C19.7625 29.4463 18.884 29.8709 17.9392 29.8709Z" fill="url(#paint0_linear)"/>
<defs>
<linearGradient id="paint0_linear" x1="36.4303" y1="21.4967" x2="0.999386" y2="21.3797" gradientUnits="userSpaceOnUse">
<stop stop-color="#03CFA7"/>
<stop offset="1" stop-color="#194163"/>
<stop offset="1" stop-color="#194163"/>
</linearGradient>
</defs>
</svg>
