<svg width="30" height="30" viewBox="0 0 37 37" fill="none" xmlns="http://www.w3.org/2000/svg">
<path fill-rule="evenodd" clip-rule="evenodd" d="M13.6036 1C9.65395 1 6.44065 4.2133 6.44065 8.16307C6.44065 10.8422 7.91933 13.182 10.1031 14.4104C11.1388 14.9931 12.333 15.3261 13.6036 15.3261C14.8743 15.3261 16.0685 14.9931 17.1042 14.4104C19.288 13.182 20.7666 10.8421 20.7666 8.16307C20.7666 4.21338 17.5533 1 13.6036 1ZM9.95613 16.7929H17.251C20.5352 16.7929 23.2071 19.4648 23.2071 22.749V34.8088C23.2071 35.4667 22.6738 36 22.0159 36H5.19123C4.53332 36 4 35.4666 4 34.8088V22.749C4 19.4648 6.67192 16.7929 9.95613 16.7929ZM23.9469 19.7735H27.1378C30.422 19.7735 33.0939 22.4454 33.0938 25.7296V32.3039C33.0938 34.2744 31.4907 35.8776 29.5201 35.8776H24.2449C24.3771 35.5048 24.4498 35.1039 24.4498 34.6863V22.6266C24.4498 21.625 24.2721 20.664 23.9469 19.7735ZM20.1335 13.1037C20.1335 10.1498 22.5366 7.74673 25.4905 7.74673C28.4444 7.74673 30.8474 10.1498 30.8474 13.1037C30.8474 16.0576 28.4444 18.4607 25.4905 18.4607C24.7412 18.4607 24.0277 18.3055 23.3795 18.0265C22.2589 17.5441 21.3349 16.69 20.7631 15.6202C20.3618 14.8694 20.1335 14.0129 20.1335 13.1037Z" fill="url(#paint0_linear)"/>
<defs>
<linearGradient id="paint0_linear" x1="33.4513" y1="21.4967" x2="3.99939" y2="21.4159" gradientUnits="userSpaceOnUse">
<stop stop-color="#03CFA7"/>
<stop offset="1" stop-color="#194163"/>
<stop offset="1" stop-color="#194163"/>
</linearGradient>
</defs>
</svg>
