<svg width="30" height="30" viewBox="0 0 37 37" fill="none" xmlns="http://www.w3.org/2000/svg">
<mask id="path-1-inside-1" fill="white">
<path fill-rule="evenodd" clip-rule="evenodd" d="M13.6036 1C9.65395 1 6.44065 4.2133 6.44065 8.16307C6.44065 10.8422 7.91933 13.182 10.1031 14.4104C11.1388 14.9931 12.333 15.3261 13.6036 15.3261C14.8743 15.3261 16.0685 14.9931 17.1042 14.4104C19.288 13.182 20.7666 10.8421 20.7666 8.16307C20.7666 4.21338 17.5533 1 13.6036 1ZM9.95613 16.7929H17.251C20.5352 16.7929 23.2071 19.4648 23.2071 22.749V34.8088C23.2071 35.4667 22.6738 36 22.0159 36H5.19123C4.53332 36 4 35.4666 4 34.8088V22.749C4 19.4648 6.67192 16.7929 9.95613 16.7929ZM23.9469 19.7735H27.1378C30.422 19.7735 33.0939 22.4454 33.0938 25.7296V32.3039C33.0938 34.2744 31.4907 35.8776 29.5201 35.8776H24.2449C24.3771 35.5048 24.4498 35.1039 24.4498 34.6863V22.6266C24.4498 21.625 24.2721 20.664 23.9469 19.7735ZM20.1335 13.1037C20.1335 10.1498 22.5366 7.74673 25.4905 7.74673C28.4444 7.74673 30.8474 10.1498 30.8474 13.1037C30.8474 16.0576 28.4444 18.4607 25.4905 18.4607C24.7412 18.4607 24.0277 18.3055 23.3795 18.0265C22.2589 17.5441 21.3349 16.69 20.7631 15.6202C20.3618 14.8694 20.1335 14.0129 20.1335 13.1037Z"/>
</mask>
<path d="M10.1031 14.4104L9.61276 15.282L9.61279 15.282L10.1031 14.4104ZM17.1042 14.4104L17.5945 15.282L17.5945 15.282L17.1042 14.4104ZM23.9469 19.7735V18.7735H22.517L23.0076 20.1166L23.9469 19.7735ZM33.0938 25.7296L32.0938 25.7296V25.7296H33.0938ZM24.2449 35.8776L23.3024 35.5433L22.8291 36.8776H24.2449V35.8776ZM23.3795 18.0265L22.9841 18.945L22.9841 18.945L23.3795 18.0265ZM20.7631 15.6202L21.6451 15.1488L21.645 15.1487L20.7631 15.6202ZM7.44065 8.16307C7.44065 4.76558 10.2062 2 13.6036 2V0C9.10166 0 5.44065 3.66102 5.44065 8.16307H7.44065ZM10.5934 13.5389C8.71053 12.4797 7.44065 10.4652 7.44065 8.16307H5.44065C5.44065 11.2192 7.12813 13.8843 9.61276 15.282L10.5934 13.5389ZM13.6036 14.3261C12.5098 14.3261 11.4839 14.0399 10.5933 13.5389L9.61279 15.282C10.7937 15.9463 12.1561 16.3261 13.6036 16.3261V14.3261ZM16.614 13.5389C15.7233 14.0399 14.6975 14.3261 13.6036 14.3261V16.3261C15.0512 16.3261 16.4136 15.9463 17.5945 15.282L16.614 13.5389ZM19.7666 8.16307C19.7666 10.4651 18.4968 12.4797 16.614 13.5389L17.5945 15.282C20.0793 13.8843 21.7666 11.2191 21.7666 8.16307H19.7666ZM13.6036 2C17.001 2 19.7666 4.76565 19.7666 8.16307H21.7666C21.7666 3.66111 18.1056 0 13.6036 0V2ZM17.251 15.7929H9.95613V17.7929H17.251V15.7929ZM24.2071 22.749C24.2071 18.9125 21.0875 15.7929 17.251 15.7929V17.7929C19.9829 17.7929 22.2071 20.0171 22.2071 22.749H24.2071ZM24.2071 34.8088V22.749H22.2071V34.8088H24.2071ZM22.0159 37C23.2261 37 24.2071 36.019 24.2071 34.8088H22.2071C22.2071 34.9144 22.1215 35 22.0159 35V37ZM5.19123 37H22.0159V35H5.19123V37ZM3 34.8088C3 36.0188 3.98099 37 5.19123 37V35C5.08565 35 5 34.9144 5 34.8088H3ZM3 22.749V34.8088H5V22.749H3ZM9.95613 15.7929C6.11964 15.7929 3 18.9125 3 22.749H5C5 20.0171 7.2242 17.7929 9.95613 17.7929V15.7929ZM27.1378 18.7735H23.9469V20.7735H27.1378V18.7735ZM34.0938 25.7296C34.0939 21.8931 30.9742 18.7735 27.1378 18.7735V20.7735C29.8697 20.7735 32.0939 22.9977 32.0938 25.7296L34.0938 25.7296ZM34.0938 32.3039V25.7296H32.0938V32.3039H34.0938ZM29.5201 36.8776C32.043 36.8776 34.0938 34.8267 34.0938 32.3039H32.0938C32.0938 33.7221 30.9384 34.8776 29.5201 34.8776V36.8776ZM24.2449 36.8776H29.5201V34.8776H24.2449V36.8776ZM23.4498 34.6863C23.4498 34.9871 23.3976 35.275 23.3024 35.5433L25.1873 36.2119C25.3567 35.7346 25.4498 35.2208 25.4498 34.6863H23.4498ZM23.4498 22.6266V34.6863H25.4498V22.6266H23.4498ZM23.0076 20.1166C23.2934 20.8991 23.4498 21.744 23.4498 22.6266H25.4498C25.4498 21.5059 25.2509 20.4289 24.8862 19.4304L23.0076 20.1166ZM25.4905 6.74673C21.9843 6.74673 19.1335 9.59753 19.1335 13.1037H21.1335C21.1335 10.7021 23.0889 8.74673 25.4905 8.74673V6.74673ZM31.8474 13.1037C31.8474 9.59753 28.9966 6.74673 25.4905 6.74673V8.74673C27.8921 8.74673 29.8474 10.7021 29.8474 13.1037H31.8474ZM25.4905 19.4607C28.9966 19.4607 31.8474 16.6099 31.8474 13.1037H29.8474C29.8474 15.5053 27.8921 17.4607 25.4905 17.4607V19.4607ZM22.9841 18.945C23.754 19.2764 24.6018 19.4607 25.4905 19.4607V17.4607C24.8805 17.4607 24.3013 17.3346 23.7749 17.108L22.9841 18.945ZM19.8812 16.0915C20.5591 17.36 21.654 18.3724 22.9841 18.945L23.7749 17.108C22.8637 16.7158 22.1107 16.0201 21.6451 15.1488L19.8812 16.0915ZM19.1335 13.1037C19.1335 14.1823 19.4047 15.2002 19.8812 16.0916L21.645 15.1487C21.3189 14.5386 21.1335 13.8435 21.1335 13.1037H19.1335Z" fill="url(#paint0_linear)" mask="url(#path-1-inside-1)"/>
<defs>
<linearGradient id="paint0_linear" x1="4" y1="18" x2="35.1719" y2="18" gradientUnits="userSpaceOnUse">
<stop stop-color="#194163"/>
<stop offset="1" stop-color="#03CFA7"/>
</linearGradient>
</defs>
</svg>
