<svg width="256" height="108" viewBox="0 0 256 108" fill="none" xmlns="http://www.w3.org/2000/svg">
  <path
    d="M109.066 70.5176L110.061 71.1895L105.639 79.2642L103.692 82.4589C98.4976 90.3299 91.4225 96.7781 83.1086 101.219C74.7947 105.659 65.5051 107.952 56.0823 107.889C25.1134 107.889 0 83.7847 0 54.0421C0 24.2994 25.1134 0.195377 56.0823 0.195377C63.8006 0.183884 71.4436 1.71533 78.563 4.69991L87.3862 9.36417L117.003 24.7037L110.061 38.2679L109.644 38.0047L76.7282 20.1623L74.6859 19.0441C68.6535 15.9419 61.9704 14.3212 55.1888 14.316C32.2613 14.316 13.7054 32.1584 13.7054 54.2497C13.7054 76.3411 32.3091 94.1835 55.1888 94.1835C62.4664 94.2319 69.6307 92.3787 75.9741 88.807C82.3174 85.2352 87.6204 80.0686 91.359 73.8173L91.7419 73.1943L97.1966 64.4708L109.066 70.5176Z"
    fill="url(#paint0_linear_1528_4)"/>
  <path
    d="M162.366 45.0971L162.254 45.3207C162.086 45.6568 161.792 45.9127 161.437 46.0325C161.081 46.1522 160.692 46.126 160.356 45.9597L159.175 45.3527L152.952 42.158L152.649 42.749L159.031 45.9437L160.084 46.4868C160.416 46.6638 160.665 46.9623 160.781 47.3197C160.897 47.6771 160.871 48.0656 160.707 48.4036L160.579 48.6273C160.495 48.7943 160.378 48.9431 160.236 49.0649C160.094 49.1867 159.929 49.2792 159.751 49.3371C159.573 49.395 159.386 49.4171 159.199 49.4022C159.013 49.3873 158.831 49.3356 158.664 49.2502L158.473 49.1544L151.261 45.4485L150.958 46.0395L158.377 49.8412C158.714 50.0125 158.97 50.3097 159.089 50.6685C159.209 51.0273 159.182 51.4187 159.015 51.7581L158.888 51.9817C158.741 52.2933 158.477 52.5343 158.154 52.6526C157.968 52.7354 157.767 52.7782 157.564 52.7782C157.36 52.7782 157.159 52.7354 156.973 52.6526L149.538 48.8349L149.235 49.4419L156.702 53.2436C156.869 53.328 157.018 53.4449 157.139 53.5876C157.26 53.7302 157.352 53.8957 157.408 54.0742C157.465 54.2528 157.485 54.4409 157.468 54.6274C157.451 54.8139 157.396 54.9952 157.308 55.1604L157.133 55.432C157.05 55.5985 156.935 55.7469 156.794 55.8685C156.653 55.9902 156.49 56.0827 156.313 56.1406C156.137 56.1986 155.95 56.2208 155.765 56.2061C155.58 56.1914 155.399 56.14 155.234 56.0549L147.815 52.2373L147.528 52.8283L154.995 56.646C155.304 56.827 155.533 57.1199 155.634 57.4644C155.735 57.809 155.7 58.1791 155.537 58.4989L155.426 58.7385C155.341 58.9056 155.224 59.0543 155.082 59.1761C154.94 59.298 154.775 59.3905 154.598 59.4484C154.42 59.5062 154.232 59.5284 154.046 59.5134C153.859 59.4985 153.677 59.4469 153.511 59.3614L150.591 57.8599L148.772 56.9335L144.401 54.6972L144.129 54.5534L137.396 51.1031L136.232 50.5121L135.976 50.3524C135.906 50.2839 135.842 50.209 135.785 50.1288C133.921 48.0838 133.261 47.9159 130.893 46.4862L137.835 33.0488C140.144 34.2175 141.376 33.886 143.938 34.2511C144.073 34.2775 144.202 34.3261 144.321 34.3949H144.448L146.714 35.5449L147.608 36.0082L158.999 41.8225L159.893 42.2858L161.632 43.1643C161.811 43.2385 161.972 43.3484 162.107 43.4874C162.242 43.6263 162.347 43.7913 162.415 43.9723C162.484 44.1532 162.515 44.3464 162.507 44.5398C162.498 44.7332 162.45 44.9229 162.366 45.0971Z"
    fill="#3CE7C6"/>
  <path
    d="M122.389 21.9728L122.612 22.0846C122.948 22.2527 123.203 22.547 123.323 22.9032C123.443 23.2594 123.416 23.6485 123.25 23.9855L122.644 25.1675L119.453 31.3972L120.043 31.7007L123.234 25.3113L123.777 24.257C123.954 23.9256 124.252 23.6755 124.609 23.5594C124.966 23.4432 125.354 23.47 125.691 23.6341L125.915 23.7619C126.082 23.8465 126.23 23.9632 126.352 24.1055C126.474 24.2477 126.566 24.4127 126.624 24.5908C126.682 24.7689 126.704 24.9567 126.689 25.1434C126.674 25.3301 126.622 25.512 126.537 25.6787L126.441 25.8704L122.74 33.0904L123.33 33.3939L127.127 25.9662C127.298 25.629 127.595 25.3728 127.954 25.2532C128.312 25.1336 128.703 25.1602 129.042 25.3273L129.265 25.4551C129.577 25.6022 129.817 25.8662 129.935 26.1898C130.018 26.3759 130.061 26.5772 130.061 26.7809C130.061 26.9845 130.018 27.1858 129.935 27.3719L126.122 34.8155L126.729 35.119L130.526 27.6434C130.61 27.4762 130.727 27.3275 130.869 27.2061C131.012 27.0847 131.177 26.993 131.356 26.9365C131.534 26.8799 131.722 26.8596 131.908 26.8768C132.094 26.894 132.275 26.9482 132.44 27.0364L132.712 27.2121C132.878 27.2952 133.026 27.4104 133.148 27.5512C133.269 27.692 133.362 27.8556 133.42 28.0324C133.477 28.2092 133.5 28.3958 133.485 28.5813C133.47 28.7668 133.419 28.9475 133.334 29.113L129.521 36.5407L130.111 36.8282L133.924 29.3526C134.105 29.0425 134.398 28.8135 134.742 28.7126C135.086 28.6116 135.456 28.6462 135.775 28.8095L136.014 28.9213C136.181 29.0059 136.33 29.1227 136.452 29.2649C136.573 29.4072 136.666 29.5721 136.723 29.7502C136.781 29.9284 136.803 30.1162 136.788 30.3028C136.774 30.4895 136.722 30.6714 136.637 30.8381L135.137 33.7613L134.211 35.5823L131.978 39.959L131.834 40.2306L128.388 46.9714L127.798 48.1374L127.638 48.393C127.57 48.4637 127.495 48.5278 127.415 48.5847C125.372 50.4511 124.608 50.3634 123.18 52.7344L110.017 46.0157C111.184 43.7039 111.191 42.9868 111.555 40.4222C111.582 40.2874 111.63 40.1579 111.699 40.0389L111.699 39.9111L112.848 37.6428L113.31 36.7483L119.118 25.3432L119.581 24.4487L120.458 22.7076C120.532 22.5288 120.642 22.367 120.781 22.2321C120.92 22.0973 121.084 21.9923 121.265 21.9235C121.446 21.8547 121.639 21.8236 121.832 21.832C122.025 21.8405 122.215 21.8884 122.389 21.9728Z"
    fill="#5AF8D9"/>
  <path
    d="M96.6434 60.2688L96.7551 60.0452C96.923 59.7091 97.2169 59.4532 97.5727 59.3335C97.9285 59.2138 98.3172 59.2399 98.6537 59.4063L99.8344 60.0133L106.057 63.208L106.36 62.6169L99.978 59.4222L98.925 58.8791C98.5939 58.7021 98.3441 58.4036 98.2281 58.0463C98.1121 57.6889 98.1389 57.3004 98.3027 56.9623L98.4304 56.7387C98.5149 56.5716 98.6315 56.4229 98.7736 56.3011C98.9157 56.1792 99.0804 56.0867 99.2583 56.0288C99.4363 55.971 99.6239 55.9488 99.8104 55.9637C99.9968 55.9787 100.179 56.0303 100.345 56.1157L100.536 56.2116L107.748 59.9174L108.051 59.3264L100.632 55.5247C100.295 55.3535 100.039 55.0563 99.92 54.6975C99.8006 54.3387 99.8271 53.9472 99.994 53.6079L100.122 53.3843C100.269 53.0727 100.532 52.8317 100.856 52.7134C101.041 52.6306 101.243 52.5878 101.446 52.5878C101.649 52.5878 101.85 52.6306 102.036 52.7134L109.471 56.5311L109.774 55.9241L102.307 52.1224C102.14 52.038 101.992 51.9211 101.871 51.7784C101.749 51.6358 101.658 51.4703 101.601 51.2917C101.545 51.1131 101.525 50.9251 101.542 50.7385C101.559 50.552 101.613 50.3708 101.701 50.2055L101.877 49.934C101.96 49.7675 102.075 49.6191 102.215 49.4974C102.356 49.3758 102.519 49.2833 102.696 49.2253C102.873 49.1674 103.059 49.1451 103.244 49.1598C103.43 49.1745 103.61 49.2259 103.775 49.311L111.194 53.1287L111.482 52.5377L104.015 48.72C103.705 48.5389 103.476 48.2461 103.375 47.9016C103.275 47.557 103.309 47.1869 103.472 46.8671L103.584 46.6275C103.668 46.4604 103.785 46.3117 103.927 46.1898C104.069 46.068 104.234 45.9755 104.412 45.9176C104.59 45.8597 104.777 45.8376 104.964 45.8525C105.15 45.8674 105.332 45.9191 105.499 46.0045L108.418 47.506L110.237 48.4325L114.609 50.6688L114.88 50.8125L121.613 54.2628L122.778 54.8538L123.033 55.0136C123.104 55.0821 123.168 55.1569 123.225 55.2372C125.089 57.2822 125.446 57.7033 127.814 59.133L121.036 72.3105C118.727 71.1419 117.633 71.4799 115.072 71.1149C114.937 71.0884 114.807 71.0398 114.689 70.9711L114.561 70.9711L112.295 69.821L111.402 69.3578L100.01 63.5434L99.1164 63.0802L97.3773 62.2016C97.1987 62.1275 97.0371 62.0175 96.9024 61.8786C96.7677 61.7397 96.6628 61.5746 96.5941 61.3937C96.5254 61.2127 96.4943 61.0196 96.5028 60.8262C96.5113 60.6327 96.5591 60.4431 96.6434 60.2688Z"
    fill="#1A4D78"/>
  <path
    d="M136.437 83.6421L136.214 83.5303C135.878 83.3622 135.623 83.0679 135.503 82.7117C135.384 82.3555 135.41 81.9664 135.576 81.6294L136.182 80.4474L139.373 74.2177L138.783 73.9142L135.592 80.3036L135.049 81.3579C134.872 81.6893 134.574 81.9394 134.217 82.0555C133.86 82.1717 133.472 82.1449 133.135 81.9808L132.911 81.853C132.744 81.7685 132.596 81.6517 132.474 81.5094C132.352 81.3672 132.26 81.2022 132.202 81.0241C132.144 80.846 132.122 80.6582 132.137 80.4715C132.152 80.2848 132.204 80.1029 132.289 79.9362L132.385 79.7446L136.086 72.5245L135.496 72.221L131.699 79.6487C131.528 79.9859 131.231 80.2421 130.872 80.3617C130.514 80.4813 130.123 80.4547 129.784 80.2876L129.561 80.1599C129.25 80.0127 129.009 79.7487 128.891 79.4251C128.808 79.2391 128.765 79.0377 128.765 78.8341C128.765 78.6304 128.808 78.4291 128.891 78.2431L132.704 70.7994L132.098 70.4959L128.3 77.9715C128.216 78.1387 128.099 78.2874 127.957 78.4088C127.814 78.5302 127.649 78.6219 127.471 78.6785C127.292 78.735 127.104 78.7553 126.918 78.7381C126.732 78.721 126.551 78.6667 126.386 78.5785L126.114 78.4028C125.948 78.3198 125.8 78.2045 125.678 78.0637C125.557 77.9229 125.464 77.7594 125.407 77.5825C125.349 77.4057 125.326 77.2191 125.341 77.0336C125.356 76.8482 125.407 76.6674 125.492 76.5019L129.305 69.0743L128.715 68.7867L124.902 76.2623C124.721 76.5724 124.428 76.8014 124.084 76.9024C123.74 77.0034 123.37 76.9687 123.051 76.8054L122.812 76.6936C122.645 76.609 122.496 76.4922 122.375 76.35C122.253 76.2077 122.16 76.0428 122.103 75.8647C122.045 75.6866 122.023 75.4988 122.038 75.3121C122.053 75.1254 122.104 74.9435 122.189 74.7768L123.689 71.8537L124.615 70.0327L126.848 65.6559L126.992 65.3844L130.438 58.6436L131.029 57.4775L131.188 57.2219C131.257 57.1513 131.331 57.0871 131.412 57.0302C133.454 55.1638 134.163 54.5897 135.591 52.2187L148.805 58.8848C147.637 61.1966 147.636 62.6282 147.271 65.1927C147.244 65.3275 147.196 65.4571 147.127 65.5761L147.127 65.7039L145.979 67.9721L145.516 68.8666L139.708 80.2717L139.245 81.1662L138.368 82.9073C138.294 83.0861 138.184 83.2479 138.045 83.3828C137.907 83.5176 137.742 83.6226 137.561 83.6914C137.38 83.7602 137.187 83.7913 136.994 83.7829C136.801 83.7744 136.611 83.7265 136.437 83.6421Z"
    fill="#245884"/>
  <path
    d="M256 53.8488C256 83.5915 230.886 107.696 199.917 107.696C188.434 107.737 177.203 104.332 167.672 97.9197L140.521 83.3286L146.691 70.8127L173.368 85.3486C180.765 90.9088 189.774 93.8983 199.024 93.8625C221.951 93.8625 240.507 76.0201 240.507 53.9287C240.507 31.8373 221.903 13.9949 199.024 13.9949C191.619 13.9337 184.33 15.8415 177.902 19.5235C171.475 23.2055 166.138 28.5297 162.439 34.9522L159.641 39.8362L148.22 34.0134L147.464 33.5655L150.696 27.9558C155.719 19.3737 162.915 12.2703 171.557 7.3623C180.2 2.45432 189.982 -0.0844739 199.917 0.00214446C230.886 0.00214446 256 24.1221 256 53.8488Z"
    fill="url(#paint1_linear_1528_4)"/>
  <defs>
    <linearGradient id="paint0_linear_1528_4" x1="71.3418" y1="84.2056" x2="58.0777" y2="34.021"
                    gradientUnits="userSpaceOnUse">
      <stop stop-color="#5AF8D9"/>
      <stop offset="1" stop-color="#3CE7C6"/>
    </linearGradient>
    <linearGradient id="paint1_linear_1528_4" x1="149.7" y1="89.4697" x2="166.073" y2="40.9338"
                    gradientUnits="userSpaceOnUse">
      <stop stop-color="#1A4D78"/>
      <stop offset="1" stop-color="#194163"/>
    </linearGradient>
  </defs>
</svg>
