<svg width="770" height="457" viewBox="0 0 770 457" fill="none" xmlns="http://www.w3.org/2000/svg">
  <path
    d="M194.162 347.051C194.162 348.82 195.945 350.453 197.59 350.453C199.373 350.453 200.881 348.82 200.881 347.051V343.922C200.881 342.154 199.373 340.657 197.59 340.657C195.945 340.657 194.162 342.154 194.162 343.922V347.051ZM185.661 451.949C185.661 453.717 187.032 455.078 188.952 455.078C195.534 455.078 200.607 450.044 200.607 443.513V365.827C200.607 363.922 199.099 362.426 197.316 362.426C195.534 362.426 193.888 363.922 193.888 365.827V443.513C193.888 446.234 191.557 448.547 188.952 448.547C187.032 448.547 185.661 450.044 185.661 451.949ZM230.092 395.759C230.092 413.854 244.353 429.092 261.904 429.092C279.593 429.092 293.717 413.854 293.717 395.759C293.717 377.663 279.593 362.426 261.904 362.426C244.353 362.426 230.092 377.663 230.092 395.759ZM236.674 395.759C236.674 380.929 248.192 368.82 261.904 368.82C275.617 368.82 287.135 380.929 287.135 395.759C287.135 410.588 275.617 422.561 261.904 422.561C248.192 422.561 236.674 410.588 236.674 395.759ZM319.085 425.826C319.085 427.595 320.593 429.092 322.376 429.092C324.295 429.092 325.804 427.595 325.804 425.826V365.691C325.804 363.786 324.295 362.426 322.376 362.426C320.593 362.426 319.085 363.786 319.085 365.691V425.826ZM319.085 347.051C319.085 348.956 320.593 350.589 322.376 350.589C324.295 350.589 325.804 348.956 325.804 347.051V343.922C325.804 342.154 324.295 340.657 322.376 340.657C320.593 340.657 319.085 342.154 319.085 343.922V347.051ZM405.508 425.826C405.508 427.731 407.016 429.092 408.799 429.092C410.581 429.092 412.09 427.731 412.09 425.826V389.636C412.09 374.806 399.886 362.562 384.802 362.562C376.438 362.562 368.896 366.371 363.96 372.221V365.827C363.96 364.058 362.588 362.562 360.806 362.562C358.886 362.562 357.515 364.058 357.515 365.827V388.548V389.636V425.826V426.643C357.515 426.643 357.652 426.779 357.652 426.915C357.652 427.051 357.652 427.187 357.789 427.323C358.2 428.139 359.023 428.82 359.983 429.092H360.806C361.766 429.092 362.725 428.684 363.274 427.867C363.685 427.459 363.822 426.915 363.96 426.371V425.826V389.636C364.234 378.344 373.421 369.092 384.802 369.092C396.321 369.092 405.508 378.344 405.508 389.636V425.826ZM440.239 401.881C440.239 416.847 452.306 429.092 467.389 429.092C482.747 429.092 494.951 416.847 494.951 401.881V365.555C494.951 363.65 493.443 362.289 491.523 362.289C489.877 362.289 488.232 363.65 488.232 365.555V401.881C488.232 413.309 478.908 422.425 467.389 422.561C456.008 422.425 446.821 413.309 446.821 401.881V365.555C446.821 363.65 445.312 362.289 443.53 362.289C441.747 362.289 440.239 363.65 440.239 365.555V401.881ZM521.454 419.568C526.939 423.922 535.441 428.956 546.274 429.092C552.856 429.092 558.341 427.187 563.003 423.786C567.528 420.384 570.682 415.894 570.682 410.316C570.682 404.738 567.528 399.568 563.14 396.711C558.478 394.126 553.267 392.221 546.822 391.269H546.548C540.377 390.316 535.852 388.684 532.836 386.643C530.23 384.602 528.996 382.697 528.996 379.976C528.996 377.255 530.505 374.534 533.247 372.357C536.127 370.045 540.515 368.548 545.999 368.548C552.581 368.548 557.518 371.949 562.454 375.215C563.963 376.167 566.019 375.759 566.979 374.262C567.939 372.766 567.528 370.725 566.02 369.636C560.809 366.371 554.638 362.426 545.999 362.426C539.143 362.426 533.521 364.194 529.545 366.915C525.294 370.045 522.277 374.67 522.277 379.976C522.277 385.146 525.294 389.5 529.545 391.949C533.384 394.67 538.732 396.031 544.765 397.119L545.04 397.255C551.622 398.344 556.421 399.976 559.3 402.153C562.729 405.01 563.963 407.187 564.1 410.316C564.1 413.309 562.317 416.303 559.026 418.48C556.009 420.928 551.484 422.561 546.274 422.561C537.772 422.561 530.367 418.207 525.705 414.806C524.197 413.582 522.14 413.854 521.043 415.214C519.946 416.575 520.083 418.343 521.454 419.568Z"
    fill="#194163"/>
  <path
    d="M327.886 210.347L330.875 212.35L317.582 236.436L311.73 245.965C296.113 269.443 274.844 288.677 249.85 301.923C224.855 315.169 196.928 322.007 168.6 321.819C75.4983 321.819 0 249.92 0 161.202C0 72.4847 75.4983 0.58616 168.6 0.58616C191.804 0.551878 214.781 5.11993 236.184 14.0225L262.709 27.9352L351.746 73.6907L330.875 114.151L329.621 113.365L230.668 60.1443L224.528 56.8089C206.393 47.5556 186.302 42.7215 165.914 42.7058C96.9869 42.7058 41.2027 95.9268 41.2027 161.822C41.2027 227.717 97.1307 280.938 165.914 280.938C187.793 281.083 209.331 275.555 228.401 264.901C247.471 254.247 263.413 238.836 274.653 220.189L275.804 218.331L292.202 192.31L327.886 210.347Z"
    fill="url(#paint0_linear_1531_486)"/>
  <path
    d="M488.12 134.517L487.782 135.184C487.28 136.186 486.397 136.95 485.325 137.307C484.256 137.664 483.089 137.586 482.076 137.09L478.528 135.279L459.82 125.75L458.909 127.513L478.096 137.042L481.26 138.662C482.255 139.19 483.008 140.081 483.356 141.147C483.704 142.213 483.623 143.371 483.131 144.38L482.748 145.047C482.494 145.545 482.143 145.989 481.717 146.352C481.288 146.716 480.793 146.991 480.258 147.164C479.724 147.337 479.161 147.403 478.599 147.358C478.04 147.314 477.491 147.16 476.992 146.905L476.415 146.619L454.736 135.565L453.825 137.328L476.127 148.668C477.14 149.179 477.91 150.065 478.268 151.136C478.627 152.206 478.55 153.373 478.047 154.385L477.663 155.052C477.22 155.982 476.429 156.701 475.455 157.054C474.9 157.301 474.295 157.428 473.683 157.428C473.072 157.428 472.467 157.301 471.908 157.054L449.557 145.666L448.643 147.477L471.092 158.817C471.595 159.069 472.041 159.417 472.404 159.843C472.769 160.268 473.043 160.762 473.216 161.294C473.385 161.827 473.444 162.388 473.395 162.944C473.342 163.501 473.181 164.041 472.913 164.534L472.386 165.344C472.136 165.841 471.792 166.284 471.37 166.646C470.944 167.009 470.456 167.285 469.925 167.458C469.394 167.631 468.831 167.697 468.276 167.653C467.72 167.61 467.175 167.456 466.68 167.202L444.374 155.815L443.513 157.578L465.959 168.966C466.891 169.506 467.58 170.379 467.882 171.407C468.184 172.435 468.082 173.538 467.59 174.492L467.256 175.207C467 175.705 466.651 176.149 466.222 176.513C465.797 176.876 465.301 177.152 464.767 177.324C464.232 177.497 463.666 177.563 463.107 177.519C462.545 177.474 462 177.32 461.501 177.065L452.721 172.587L447.254 169.823L434.111 163.153L433.295 162.724L413.054 152.432L409.552 150.669L408.785 150.193C408.571 149.989 408.381 149.765 408.209 149.526C402.604 143.426 400.621 142.925 393.501 138.66L414.372 98.5788C421.316 102.065 425.019 101.076 432.719 102.165C433.123 102.244 433.513 102.389 433.872 102.594H434.255L441.066 106.024L443.752 107.406L477.997 124.75L480.684 126.131L485.912 128.752C486.45 128.973 486.935 129.301 487.339 129.716C487.747 130.13 488.06 130.622 488.268 131.162C488.475 131.702 488.567 132.277 488.542 132.854C488.517 133.432 488.373 133.997 488.12 134.517Z"
    fill="#3CE7C6"/>
  <path
    d="M367.937 65.5411L368.608 65.8746C369.617 66.3759 370.387 67.254 370.746 68.3166C371.105 69.3789 371.027 70.5395 370.528 71.5445L368.703 75.0704L359.112 93.6525L360.887 94.5578L370.479 75.4995L372.11 72.3546C372.641 71.3659 373.538 70.6201 374.61 70.2737C375.683 69.9273 376.85 70.0071 377.866 70.4966L378.538 70.8775C379.04 71.1301 379.487 71.4783 379.853 71.9025C380.218 72.327 380.496 72.8189 380.668 73.3502C380.844 73.8815 380.911 74.4418 380.865 74.9986C380.819 75.5553 380.665 76.0981 380.408 76.5953L380.12 77.167L368.992 98.7032L370.767 99.6085L382.184 77.4528C382.697 76.447 383.59 75.683 384.666 75.3261C385.745 74.9693 386.92 75.0488 387.939 75.547L388.611 75.9283C389.546 76.3671 390.27 77.1545 390.625 78.1198C390.872 78.6748 391.002 79.2755 391.002 79.8829C391.002 80.4902 390.872 81.091 390.625 81.6456L379.16 103.849L380.985 104.754L392.401 82.4557C392.654 81.9568 393.002 81.5134 393.431 81.1513C393.86 80.7892 394.356 80.5157 394.894 80.3469C395.428 80.1784 395.994 80.1177 396.553 80.1689C397.116 80.2202 397.657 80.3821 398.157 80.6451L398.972 81.1691C399.472 81.4168 399.915 81.7608 400.28 82.1808C400.646 82.6008 400.924 83.0885 401.1 83.616C401.272 84.1434 401.339 84.6999 401.297 85.2531C401.251 85.8064 401.096 86.3458 400.843 86.839L389.377 108.995L391.153 109.852L402.615 87.5538C403.16 86.629 404.039 85.946 405.073 85.6449C406.11 85.3435 407.221 85.4471 408.181 85.9338L408.898 86.2673C409.401 86.5198 409.847 86.868 410.213 87.2926C410.579 87.7168 410.856 88.2086 411.032 88.74C411.205 89.2713 411.271 89.8315 411.226 90.3883C411.183 90.9454 411.025 91.4879 410.772 91.985L406.261 100.704L403.48 106.136L396.764 119.191L396.332 120.001L385.97 140.108L384.198 143.586L383.717 144.348C383.513 144.559 383.288 144.751 383.045 144.92C376.906 150.488 374.61 150.226 370.317 157.298L330.743 137.257C334.252 130.362 334.272 128.223 335.368 120.573C335.447 120.171 335.593 119.784 335.8 119.429V119.048L339.253 112.282L340.644 109.614L358.103 75.5947L359.495 72.9264L362.132 67.733C362.357 67.1996 362.688 66.7167 363.102 66.3149C363.521 65.9126 364.017 65.599 364.558 65.3939C365.103 65.1888 365.683 65.096 366.263 65.1214C366.843 65.1465 367.413 65.2896 367.937 65.5411Z"
    fill="#5AF8D9"/>
  <path
    d="M290.543 179.772L290.879 179.105C291.384 178.102 292.267 177.339 293.337 176.982C294.407 176.625 295.575 176.703 296.587 177.199L300.136 179.01L318.843 188.539L319.754 186.776L300.568 177.247L297.402 175.627C296.407 175.099 295.656 174.209 295.307 173.142C294.959 172.076 295.039 170.918 295.531 169.909L295.915 169.242C296.169 168.744 296.52 168.3 296.947 167.937C297.374 167.573 297.87 167.297 298.404 167.125C298.939 166.952 299.503 166.886 300.064 166.931C300.625 166.975 301.171 167.129 301.671 167.384L302.247 167.67L323.927 178.724L324.839 176.961L302.534 165.621C301.522 165.11 300.753 164.224 300.394 163.154C300.034 162.083 300.114 160.916 300.616 159.903L301 159.236C301.442 158.307 302.234 157.588 303.206 157.235C303.765 156.988 304.369 156.861 304.981 156.861C305.592 156.861 306.197 156.988 306.756 157.235L329.108 168.623L330.019 166.812L307.571 155.473C307.069 155.221 306.623 154.872 306.258 154.447C305.893 154.021 305.618 153.527 305.448 152.995C305.278 152.462 305.218 151.901 305.269 151.345C305.321 150.788 305.484 150.248 305.748 149.755L306.276 148.945C306.525 148.448 306.871 148.005 307.294 147.643C307.717 147.28 308.208 147.004 308.739 146.831C309.27 146.658 309.83 146.592 310.387 146.636C310.944 146.68 311.487 146.833 311.984 147.087L334.288 158.474L335.152 156.711L312.703 145.324C311.772 144.784 311.085 143.91 310.782 142.882C310.478 141.855 310.582 140.751 311.073 139.797L311.408 139.082C311.662 138.583 312.013 138.14 312.44 137.777C312.867 137.413 313.363 137.137 313.897 136.965C314.432 136.792 314.996 136.726 315.557 136.77C316.117 136.815 316.664 136.969 317.164 137.224L325.942 141.703L331.41 144.466L344.553 151.137L345.368 151.565L365.61 161.857L369.112 163.62L369.879 164.096C370.09 164.301 370.283 164.524 370.456 164.764C376.06 170.863 377.132 172.119 384.252 176.384L363.877 215.691C356.933 212.205 353.646 213.213 345.944 212.124C345.539 212.045 345.15 211.9 344.792 211.695H344.409L337.598 208.265L334.912 206.883L300.664 189.54L297.978 188.158L292.75 185.537C292.213 185.316 291.727 184.988 291.322 184.574C290.917 184.159 290.601 183.667 290.395 183.127C290.188 182.587 290.095 182.011 290.12 181.434C290.146 180.858 290.29 180.292 290.543 179.772Z"
    fill="#1A4D78"/>
  <path
    d="M410.174 249.489L409.502 249.156C408.493 248.655 407.723 247.776 407.365 246.714C407.006 245.652 407.083 244.491 407.583 243.486L409.407 239.96L418.999 221.378L417.223 220.473L407.632 239.531L406 242.676C405.469 243.664 404.573 244.41 403.5 244.757C402.425 245.103 401.261 245.023 400.245 244.534L399.573 244.153C399.07 243.901 398.624 243.552 398.258 243.128C397.893 242.703 397.615 242.212 397.442 241.68C397.267 241.149 397.2 240.589 397.246 240.032C397.291 239.475 397.446 238.933 397.703 238.435L397.991 237.864L409.119 216.328L407.343 215.422L395.927 237.578C395.414 238.584 394.521 239.348 393.445 239.704C392.365 240.061 391.191 239.982 390.171 239.483L389.5 239.103C388.565 238.663 387.84 237.876 387.485 236.911C387.236 236.356 387.109 235.755 387.109 235.148C387.109 234.541 387.236 233.94 387.485 233.385L398.951 211.182L397.126 210.276L385.71 232.575C385.456 233.074 385.105 233.517 384.679 233.879C384.25 234.242 383.751 234.515 383.217 234.684C382.679 234.852 382.116 234.913 381.554 234.861C380.995 234.81 380.45 234.648 379.954 234.385L379.138 233.861C378.639 233.614 378.192 233.27 377.827 232.85C377.465 232.43 377.187 231.942 377.011 231.414C376.839 230.887 376.772 230.331 376.814 229.777C376.86 229.224 377.015 228.685 377.268 228.191L388.733 206.036L386.958 205.178L375.496 227.477C374.951 228.401 374.072 229.084 373.035 229.386C372.001 229.687 370.89 229.584 369.93 229.097L369.209 228.763C368.71 228.511 368.263 228.162 367.898 227.738C367.532 227.314 367.254 226.822 367.078 226.29C366.906 225.759 366.839 225.199 366.885 224.642C366.927 224.085 367.082 223.543 367.339 223.045L371.85 214.326L374.631 208.894L381.346 195.839L381.779 195.03L392.137 174.923L393.912 171.445L394.394 170.682C394.598 170.471 394.823 170.28 395.066 170.11C401.205 164.543 403.335 162.831 407.628 155.758L447.352 175.642C443.843 182.538 443.839 186.808 442.742 194.458C442.661 194.86 442.517 195.246 442.31 195.601V195.982L438.857 202.748L437.465 205.416L420.008 239.436L418.616 242.104L415.979 247.297C415.754 247.831 415.423 248.314 415.008 248.716C414.59 249.118 414.094 249.431 413.553 249.637C413.008 249.842 412.428 249.934 411.847 249.909C411.267 249.884 410.698 249.741 410.174 249.489Z"
    fill="#245884"/>
  <path
    d="M769.618 160.623C769.618 249.341 694.119 321.239 601.016 321.239C566.496 321.363 532.728 311.206 504.077 292.079L422.453 248.556L441 211.223L521.199 254.581C543.438 271.167 570.522 280.084 598.329 279.977C667.257 279.977 723.041 226.756 723.041 160.861C723.041 94.966 667.113 41.7447 598.329 41.7447C576.066 41.5622 554.155 47.2528 534.831 58.2357C515.507 69.2184 499.467 85.0997 488.343 104.257L479.936 118.825L445.599 101.456L443.327 100.121L453.042 83.3878C468.143 57.7889 489.777 36.6005 515.757 21.9606C541.74 7.32086 571.147 -0.251972 601.016 0.00639656C694.119 0.00639656 769.618 71.9527 769.618 160.623Z"
    fill="url(#paint1_linear_1531_486)"/>
  <defs>
    <linearGradient id="paint0_linear_1531_486" x1="214.475" y1="251.176" x2="175.179" y2="101.331"
                    gradientUnits="userSpaceOnUse">
      <stop stop-color="#5AF8D9"/>
      <stop offset="1" stop-color="#3CE7C6"/>
    </linearGradient>
    <linearGradient id="paint1_linear_1531_486" x1="450.047" y1="266.874" x2="498.582" y2="121.869"
                    gradientUnits="userSpaceOnUse">
      <stop stop-color="#1A4D78"/>
      <stop offset="1" stop-color="#194163"/>
    </linearGradient>
  </defs>
</svg>
