<svg fill="none" height="75" viewBox="0 0 58 75" width="58" xmlns="http://www.w3.org/2000/svg">
  <path
    d="M40.8281 0H1.95937C0.877232 0 0 0.877232 0 2.57946V73.6607C0 74.1228 0.877232 75 1.95937 75H55.6299C56.7121 75 57.5893 74.1228 57.5893 73.6607V17.3813C57.5893 16.4491 57.4647 16.1491 57.2451 15.9281L41.6612 0.344196C41.4402 0.124554 41.1402 0 40.8281 0Z"
    fill="#F3F3F3"/>
  <path d="M41.5176 0.202148V16.0713H57.3868L41.5176 0.202148Z" fill="#E4E3E3"/>
  <path
    d="M17.4289 44.6305C16.9628 44.6305 16.5155 44.4792 16.1338 44.1939C14.7396 43.1479 14.5521 41.9841 14.6405 41.1912C14.8843 39.0109 17.5802 36.7287 22.6561 34.4037C24.6704 29.9895 26.5869 24.5506 27.7294 20.0064C26.3927 17.0975 25.0936 13.3234 26.0405 11.1095C26.3727 10.3341 26.7865 9.73945 27.5593 9.48231C27.8646 9.38052 28.636 9.25195 28.92 9.25195C29.595 9.25195 30.1883 10.1211 30.6088 10.6569C31.0039 11.1604 31.8999 12.2278 30.1093 19.7667C31.9146 23.4953 34.4727 27.2935 36.9235 29.8944C38.6794 29.577 40.1901 29.4149 41.4209 29.4149C43.5182 29.4149 44.7892 29.9037 45.3075 30.9109C45.7361 31.7439 45.5606 32.7176 44.7852 33.8037C44.0392 34.847 43.0106 35.3988 41.8119 35.3988C40.1834 35.3988 38.2869 34.3703 36.1722 32.3386C32.3727 33.1328 27.9356 34.5497 24.349 36.118C23.2294 38.4939 22.1566 40.4078 21.1575 41.8113C19.7847 43.7332 18.6008 44.6305 17.4289 44.6305ZM20.9941 37.7653C18.132 39.3738 16.9655 40.6957 16.8811 41.4403C16.8677 41.5636 16.8316 41.8877 17.4584 42.3671C17.6579 42.3042 18.8231 41.7725 20.9941 37.7653ZM39.2579 31.8162C40.3494 32.656 40.616 33.0805 41.3298 33.0805C41.6432 33.0805 42.5365 33.0671 42.9503 32.4899C43.1499 32.21 43.2276 32.0305 43.2584 31.9341C43.0936 31.847 42.8753 31.6703 41.6847 31.6703C41.0084 31.6716 40.1579 31.7011 39.2579 31.8162ZM29.2535 23.0011C28.2959 26.3145 27.0316 29.8917 25.6722 33.1314C28.4713 32.0453 31.5142 31.097 34.3722 30.4261C32.5642 28.3261 30.7575 25.7037 29.2535 23.0011ZM28.4405 11.668C28.3093 11.7122 26.6593 14.0211 28.5691 15.9752C29.8401 13.1426 28.4981 11.6493 28.4405 11.668Z"
    fill="#CC4B4C"/>
  <path
    d="M55.6299 74.9998H1.95937C0.877232 74.9998 0 74.1226 0 73.0404V52.2319H57.5893V73.0404C57.5893 74.1226 56.7121 74.9998 55.6299 74.9998Z"
    fill="#CC4B4C"/>
  <path
    d="M14.5786 70.9819H12.3809V57.4873H16.2621C16.8353 57.4873 17.4032 57.5784 17.9643 57.7619C18.5255 57.9453 19.0291 58.2199 19.4751 58.5855C19.921 58.9511 20.2813 59.3944 20.5559 59.9128C20.8304 60.4311 20.9684 61.0136 20.9684 61.6619C20.9684 62.3462 20.8518 62.965 20.6201 63.5208C20.3884 64.0766 20.0643 64.544 19.6492 64.9217C19.234 65.2994 18.7331 65.5927 18.1478 65.8003C17.5626 66.0078 16.9143 66.111 16.2072 66.111H14.5773V70.9819H14.5786ZM14.5786 59.1534V64.4998H16.5929C16.8608 64.4998 17.1259 64.4543 17.3898 64.3619C17.6523 64.2708 17.8934 64.1208 18.113 63.9132C18.3326 63.7056 18.5094 63.4163 18.6434 63.044C18.7773 62.6717 18.8443 62.211 18.8443 61.6619C18.8443 61.4422 18.8134 61.1878 18.7532 60.9025C18.6916 60.6159 18.567 60.3413 18.3782 60.0788C18.188 59.8163 17.9228 59.5967 17.5813 59.4199C17.2398 59.2431 16.7871 59.1547 16.2259 59.1547H14.5786V59.1534Z"
    fill="white"/>
  <path
    d="M34.4449 63.8596C34.4449 64.9699 34.3257 65.9194 34.0873 66.7069C33.8489 67.4944 33.5476 68.1534 33.1806 68.6851C32.8136 69.2168 32.4025 69.6346 31.9444 69.94C31.4864 70.2453 31.0444 70.473 30.6172 70.627C30.19 70.7797 29.7989 70.8775 29.4453 70.9203C29.0918 70.9605 28.8293 70.9819 28.6578 70.9819H23.5498V57.4873H27.6145C28.7503 57.4873 29.748 57.6681 30.6078 58.027C31.4677 58.386 32.1828 58.8668 32.7507 59.4641C33.3186 60.0614 33.7418 60.7431 34.023 61.5052C34.3043 62.2686 34.4449 63.0534 34.4449 63.8596ZM27.9266 69.3708C29.4159 69.3708 30.49 68.8953 31.1489 67.9431C31.8078 66.9909 32.1373 65.6114 32.1373 63.8047C32.1373 63.2436 32.0703 62.6878 31.9364 62.1386C31.8011 61.5895 31.5427 61.0927 31.1583 60.6467C30.7739 60.2007 30.2516 59.8404 29.5927 59.5659C28.9337 59.2913 28.0793 59.1534 27.0293 59.1534H25.7476V69.3708H27.9266Z"
    fill="white"/>
  <path d="M39.8648 59.1534V63.4016H45.5045V64.9029H39.8648V70.9819H37.6309V57.4873H46.071V59.1534H39.8648Z"
        fill="white"/>
</svg>
